<?xml version="1.0" encoding="utf-8"?>
<!-- Generator: Adobe Illustrator 23.0.0, SVG Export Plug-In . SVG Version: 6.00 Build 0)  -->
<svg version="1.1" id="Capa_1" xmlns="http://www.w3.org/2000/svg" xmlns:xlink="http://www.w3.org/1999/xlink" x="0px" y="0px"
	 viewBox="0 0 120.51 80.42" enable-background="new 0 0 120.51 80.42" xml:space="preserve">
<g>
	<g>
		<path fill="#FFFFFF" d="M74.31,66.54h-2.4v5.26h-2.25v-5.26h-7.28v-1.26l4.47-13.94h2.37l-4.24,13.03h4.71l0.12-6.93h2.1v6.93h2.4
			V66.54z"/>
		<path fill="#FFFFFF" d="M87.75,66.54h-2.4v5.26H83.1v-5.26h-7.28v-1.26l4.47-13.94h2.37l-4.24,13.03h4.71l0.12-6.93h2.1v6.93h2.4
			V66.54z"/>
		<path fill="#FFFFFF" d="M108.35,62.1v9.7h-2.28v-9.58c0-2.89-0.85-3.97-2.34-3.97c-1.78,0-3.01,1.52-3.01,4.15v9.41h-2.28v-9.58
			c0-2.89-0.91-3.97-2.4-3.97c-1.78,0-2.98,1.52-2.98,4.15v9.41h-2.28V56.43h1.72l0.29,1.84c0.76-1.37,1.99-2.22,3.74-2.22
			c1.69,0,2.98,0.85,3.65,2.63c0.73-1.61,2.07-2.63,4.06-2.63C106.74,56.05,108.35,58.01,108.35,62.1z"/>
		<path fill="#FFFFFF" d="M111.61,61.34c0-3.48,3.95-4.88,3.95-7.24c0-0.76-0.49-1.37-1.37-1.37c-0.82,0-1.33,0.55-1.36,1.61h-1.15
			c0.09-1.67,1.03-2.71,2.5-2.71c1.62,0,2.55,1.13,2.55,2.44c0,2.9-3.92,4.39-3.92,7.04h4.01v1.1h-5.21V61.34z"/>
	</g>
	<g>
		<path fill="#00AACC" d="M32.54,58.65H19.4V33.27c0-3.08,0.07-5.9,0.2-8.46c-0.81,0.98-1.81,2.01-3.02,3.08l-5.44,4.49l-6.72-8.26
			l16.46-13.41h11.67V58.65z"/>
	</g>
	<g>
		<path fill="#FFFFFF" d="M28.76,36.26H26.9v7.72h-1.32v-7.72h-1.85v-1.23h5.04V36.26z"/>
		<path fill="#FFFFFF" d="M30.06,35.03h1.29v8.95h-1.29V35.03z"/>
		<path fill="#FFFFFF" d="M38.5,37.92c0,1.88-1,2.92-2.75,2.92h-1.07v3.15h-1.29v-8.95h2.37C37.5,35.03,38.5,36.09,38.5,37.92z
			 M37.18,37.92c0-1.1-0.47-1.66-1.45-1.66h-1.06v3.35h1.06C36.7,39.61,37.18,39.07,37.18,37.92z"/>
		<path fill="#FFFFFF" d="M39.79,41.14v-3.27c0-1.87,1.02-3,2.74-3c1.71,0,2.74,1.14,2.74,3v3.27c0,1.87-1.02,3-2.74,3
			C40.81,44.15,39.79,43.01,39.79,41.14z M43.93,41.14v-3.27c0-1.13-0.49-1.74-1.41-1.74c-0.93,0-1.41,0.61-1.41,1.74v3.27
			c0,1.13,0.47,1.74,1.41,1.74C43.44,42.88,43.93,42.27,43.93,41.14z"/>
		<path fill="#FFFFFF" d="M52.06,35.03v8.95h-1.24V36.7l-1.34,0.95v-1.41l1.66-1.21H52.06z"/>
		<path fill="#FFFFFF" d="M57.12,35.03h2.22c1.74,0,2.76,1.02,2.76,2.79v3.35c0,1.78-1.02,2.81-2.75,2.81h-2.24V35.03z M59.35,42.75
			c0.92,0,1.45-0.55,1.45-1.61v-3.3c0-1.05-0.51-1.59-1.45-1.59h-0.95v6.5H59.35z"/>
		<path fill="#FFFFFF" d="M63.64,41.14v-3.27c0-1.87,1.02-3,2.74-3c1.71,0,2.74,1.14,2.74,3v3.27c0,1.87-1.02,3-2.74,3
			C64.66,44.15,63.64,43.01,63.64,41.14z M67.78,41.14v-3.27c0-1.13-0.49-1.74-1.41-1.74c-0.93,0-1.41,0.61-1.41,1.74v3.27
			c0,1.13,0.47,1.74,1.41,1.74C67.3,42.88,67.78,42.27,67.78,41.14z"/>
		<path fill="#FFFFFF" d="M73,40.73H72.2v3.25H70.9v-8.95h2.31c1.71,0,2.68,1.02,2.68,2.8c0,1.39-0.59,2.35-1.61,2.72l1.94,3.43
			H74.8L73,40.73z M72.2,39.5h1c0.91,0,1.38-0.59,1.38-1.65s-0.47-1.6-1.37-1.6H72.2V39.5z"/>
		<path fill="#FFFFFF" d="M84.61,35.03v8.95h-1.27v-3.49c0.03-1.02,0.05-1.96,0.1-2.89l-0.05-0.03c-0.26,0.72-0.56,1.53-0.87,2.35
			l-0.78,2.03h-1.28l-0.78-2.03c-0.31-0.82-0.61-1.64-0.87-2.35l-0.05,0.03c0.04,0.93,0.08,1.87,0.1,2.89v3.49h-1.27v-8.95h1.32
			l1.51,3.63c0.21,0.51,0.51,1.37,0.65,1.78h0.05c0.14-0.41,0.45-1.27,0.65-1.78l1.51-3.63H84.61z"/>
		<path fill="#FFFFFF" d="M86.66,35.03h1.29v8.95h-1.29V35.03z"/>
		<path fill="#FFFFFF" d="M94.35,36.26h-1.87v7.72h-1.32v-7.72h-1.85v-1.23h5.04V36.26z"/>
		<path fill="#FFFFFF" d="M95.45,41.14v-3.27c0-1.87,1.02-3,2.74-3c1.71,0,2.74,1.14,2.74,3v3.27c0,1.87-1.02,3-2.74,3
			C96.47,44.15,95.45,43.01,95.45,41.14z M99.59,41.14v-3.27c0-1.13-0.49-1.74-1.41-1.74c-0.93,0-1.41,0.61-1.41,1.74v3.27
			c0,1.13,0.47,1.74,1.41,1.74C99.1,42.88,99.59,42.27,99.59,41.14z"/>
		<path fill="#FFFFFF" d="M104.81,40.73H104v3.25h-1.29v-8.95h2.31c1.71,0,2.68,1.02,2.68,2.8c0,1.39-0.59,2.35-1.61,2.72l1.94,3.43
			h-1.43L104.81,40.73z M104,39.5h1c0.91,0,1.38-0.59,1.38-1.65s-0.47-1.6-1.37-1.6H104V39.5z"/>
		<path fill="#FFFFFF" d="M109.41,35.03h1.29v8.95h-1.29V35.03z"/>
		<path fill="#FFFFFF" d="M112.48,41.14v-3.27c0-1.87,1.02-3,2.74-3c1.71,0,2.74,1.14,2.74,3v3.27c0,1.87-1.02,3-2.74,3
			C113.5,44.15,112.48,43.01,112.48,41.14z M116.62,41.14v-3.27c0-1.13-0.49-1.74-1.41-1.74c-0.93,0-1.41,0.61-1.41,1.74v3.27
			c0,1.13,0.47,1.74,1.41,1.74C116.14,42.88,116.62,42.27,116.62,41.14z"/>
	</g>
</g>
<g>
</g>
<g>
</g>
<g>
</g>
<g>
</g>
<g>
</g>
<g>
</g>
<g>
</g>
<g>
</g>
<g>
</g>
<g>
</g>
<g>
</g>
<g>
</g>
<g>
</g>
<g>
</g>
<g>
</g>
</svg>
