<?xml version="1.0" encoding="utf-8"?>
<!-- Generator: Adobe Illustrator 23.0.0, SVG Export Plug-In . SVG Version: 6.00 Build 0)  -->
<svg version="1.1" id="Capa_1" xmlns="http://www.w3.org/2000/svg" xmlns:xlink="http://www.w3.org/1999/xlink" x="0px" y="0px"
	 viewBox="0 0 120.51 80.42" enable-background="new 0 0 120.51 80.42" xml:space="preserve">
<g>
	<g>
		<path fill="#FFFFFF" d="M73.17,65.84v0.58c0,3.57-2.05,5.7-5.35,5.7c-3.33,0-5.38-2.13-5.38-5.7v-0.58c0-2.1,0.91-3.83,2.46-4.65
			c-1.32-0.91-2.1-2.54-2.1-4.38v-0.44c0-3.3,1.93-5.35,5.03-5.35s5,2.04,5,5.35v0.44c0,1.84-0.79,3.45-2.1,4.38
			C72.26,62.01,73.17,63.74,73.17,65.84z M70.86,65.84c0-2.22-1.11-3.48-3.04-3.48s-3.07,1.26-3.07,3.48v0.58
			c0,2.19,1.14,3.45,3.07,3.45s3.04-1.26,3.04-3.45V65.84z M65.1,56.84c0,2.13,0.99,3.33,2.72,3.33s2.72-1.2,2.72-3.33v-0.41
			c0-2.04-0.99-3.16-2.72-3.16s-2.72,1.11-2.72,3.16V56.84z"/>
		<path fill="#FFFFFF" d="M86.75,63.62v2.19c0,4.27-1.78,6.31-4.82,6.31c-2.92,0-4.79-1.96-4.91-5.35h2.28
			c0.09,2.13,0.99,3.1,2.63,3.1c1.61,0,2.48-1.02,2.48-4.09v-2.07c0-2.43-0.76-3.48-2.48-3.48c-1.31,0-2.13,0.79-2.45,2.07h-2.19
			V51.35h8.85v2.1h-6.6v5.58c0.67-0.61,1.61-0.99,2.78-0.99C84.97,58.04,86.75,60,86.75,63.62z"/>
		<path fill="#FFFFFF" d="M108.35,62.1v9.7h-2.28v-9.58c0-2.89-0.85-3.97-2.34-3.97c-1.78,0-3.01,1.52-3.01,4.15v9.41h-2.28v-9.58
			c0-2.89-0.91-3.97-2.4-3.97c-1.78,0-2.98,1.52-2.98,4.15v9.41h-2.28V56.43h1.72l0.29,1.84c0.76-1.37,1.99-2.22,3.74-2.22
			c1.69,0,2.98,0.85,3.65,2.63c0.73-1.61,2.07-2.63,4.06-2.63C106.74,56.05,108.35,58.01,108.35,62.1z"/>
		<path fill="#FFFFFF" d="M111.6,61.34c0-3.48,3.95-4.88,3.95-7.24c0-0.76-0.49-1.37-1.37-1.37c-0.82,0-1.33,0.55-1.36,1.61h-1.15
			c0.09-1.67,1.03-2.71,2.5-2.71c1.62,0,2.55,1.13,2.55,2.44c0,2.9-3.92,4.39-3.92,7.04h4.01v1.1h-5.21V61.34z"/>
	</g>
	<g>
		<path fill="#00AACC" d="M36.84,21.11c0,2.97-0.91,5.52-2.72,7.65c-1.81,2.13-4.44,3.68-7.87,4.64v0.2c8,1.01,12,4.79,12,11.34
			c0,4.46-1.77,7.97-5.29,10.52c-3.53,2.56-8.43,3.83-14.7,3.83c-2.58,0-4.97-0.19-7.16-0.56c-2.2-0.37-4.57-1.05-7.13-2.03V45.96
			c2.1,1.07,4.23,1.86,6.41,2.38s4.18,0.77,6.02,0.77c2.84,0,4.91-0.4,6.21-1.2c1.3-0.8,1.95-2.05,1.95-3.75
			c0-1.31-0.34-2.32-1.02-3.03c-0.68-0.71-1.77-1.25-3.28-1.61s-3.47-0.54-5.9-0.54H11.4v-9.74h3.02c6.58,0,9.87-1.68,9.87-5.05
			c0-1.27-0.49-2.21-1.46-2.82c-0.97-0.61-2.28-0.92-3.92-0.92c-3.06,0-6.23,1.03-9.51,3.08l-5.38-8.66
			c2.54-1.75,5.13-2.99,7.79-3.74c2.66-0.74,5.7-1.12,9.13-1.12c4.96,0,8.85,0.98,11.67,2.95C35.43,14.94,36.84,17.65,36.84,21.11z"
			/>
	</g>
	<g>
		<path fill="#FFFFFF" d="M28.76,36.26H26.9v7.72h-1.32v-7.72h-1.85v-1.23h5.04V36.26z"/>
		<path fill="#FFFFFF" d="M30.06,35.03h1.29v8.95h-1.29V35.03z"/>
		<path fill="#FFFFFF" d="M38.49,37.92c0,1.88-1,2.92-2.75,2.92h-1.07v3.15h-1.29v-8.95h2.37C37.5,35.03,38.49,36.09,38.49,37.92z
			 M37.18,37.92c0-1.1-0.47-1.66-1.44-1.66h-1.06v3.35h1.06C36.7,39.61,37.18,39.07,37.18,37.92z"/>
		<path fill="#FFFFFF" d="M39.79,41.14v-3.27c0-1.87,1.02-3,2.74-3c1.71,0,2.74,1.14,2.74,3v3.27c0,1.87-1.02,3-2.74,3
			C40.81,44.15,39.79,43.01,39.79,41.14z M43.93,41.14v-3.27c0-1.13-0.49-1.74-1.41-1.74c-0.93,0-1.41,0.61-1.41,1.74v3.27
			c0,1.13,0.47,1.74,1.41,1.74C43.44,42.88,43.93,42.27,43.93,41.14z"/>
		<path fill="#FFFFFF" d="M52.06,35.03v8.95h-1.24V36.7l-1.34,0.95v-1.41l1.66-1.21H52.06z"/>
		<path fill="#FFFFFF" d="M57.12,35.03h2.22c1.74,0,2.76,1.02,2.76,2.79v3.35c0,1.78-1.02,2.81-2.75,2.81h-2.24V35.03z M59.35,42.75
			c0.92,0,1.45-0.55,1.45-1.61v-3.3c0-1.05-0.51-1.59-1.45-1.59h-0.95v6.5H59.35z"/>
		<path fill="#FFFFFF" d="M63.64,41.14v-3.27c0-1.87,1.02-3,2.74-3c1.71,0,2.74,1.14,2.74,3v3.27c0,1.87-1.02,3-2.74,3
			C64.66,44.15,63.64,43.01,63.64,41.14z M67.78,41.14v-3.27c0-1.13-0.49-1.74-1.41-1.74c-0.93,0-1.41,0.61-1.41,1.74v3.27
			c0,1.13,0.47,1.74,1.41,1.74C67.3,42.88,67.78,42.27,67.78,41.14z"/>
		<path fill="#FFFFFF" d="M73,40.73H72.2v3.25H70.9v-8.95h2.31c1.71,0,2.68,1.02,2.68,2.8c0,1.39-0.59,2.35-1.61,2.72l1.94,3.43
			H74.8L73,40.73z M72.2,39.5h1c0.91,0,1.38-0.59,1.38-1.65s-0.47-1.6-1.37-1.6H72.2V39.5z"/>
		<path fill="#FFFFFF" d="M84.61,35.03v8.95h-1.27v-3.49c0.03-1.02,0.05-1.96,0.1-2.89l-0.05-0.03c-0.26,0.72-0.56,1.53-0.87,2.35
			l-0.78,2.03h-1.28l-0.78-2.03c-0.31-0.82-0.61-1.64-0.87-2.35l-0.05,0.03c0.04,0.93,0.08,1.87,0.1,2.89v3.49h-1.27v-8.95h1.32
			l1.51,3.63c0.21,0.51,0.51,1.37,0.65,1.78h0.05c0.14-0.41,0.45-1.27,0.65-1.78l1.51-3.63H84.61z"/>
		<path fill="#FFFFFF" d="M86.66,35.03h1.29v8.95h-1.29V35.03z"/>
		<path fill="#FFFFFF" d="M94.35,36.26h-1.87v7.72h-1.32v-7.72h-1.85v-1.23h5.04V36.26z"/>
		<path fill="#FFFFFF" d="M95.45,41.14v-3.27c0-1.87,1.02-3,2.74-3c1.71,0,2.74,1.14,2.74,3v3.27c0,1.87-1.02,3-2.74,3
			C96.47,44.15,95.45,43.01,95.45,41.14z M99.59,41.14v-3.27c0-1.13-0.49-1.74-1.41-1.74c-0.93,0-1.41,0.61-1.41,1.74v3.27
			c0,1.13,0.47,1.74,1.41,1.74C99.1,42.88,99.59,42.27,99.59,41.14z"/>
		<path fill="#FFFFFF" d="M104.81,40.73H104v3.25h-1.29v-8.95h2.31c1.71,0,2.68,1.02,2.68,2.8c0,1.39-0.59,2.35-1.61,2.72l1.94,3.43
			h-1.43L104.81,40.73z M104,39.5h1c0.91,0,1.38-0.59,1.38-1.65s-0.47-1.6-1.37-1.6H104V39.5z"/>
		<path fill="#FFFFFF" d="M109.41,35.03h1.29v8.95h-1.29V35.03z"/>
		<path fill="#FFFFFF" d="M112.48,41.14v-3.27c0-1.87,1.02-3,2.74-3c1.71,0,2.74,1.14,2.74,3v3.27c0,1.87-1.02,3-2.74,3
			C113.5,44.15,112.48,43.01,112.48,41.14z M116.62,41.14v-3.27c0-1.13-0.49-1.74-1.41-1.74c-0.93,0-1.41,0.61-1.41,1.74v3.27
			c0,1.13,0.47,1.74,1.41,1.74C116.14,42.88,116.62,42.27,116.62,41.14z"/>
	</g>
</g>
<g>
</g>
<g>
</g>
<g>
</g>
<g>
</g>
<g>
</g>
<g>
</g>
<g>
</g>
<g>
</g>
<g>
</g>
<g>
</g>
<g>
</g>
<g>
</g>
<g>
</g>
<g>
</g>
<g>
</g>
</svg>
