<?xml version="1.0" encoding="utf-8"?>
<!-- Generator: Adobe Illustrator 23.0.0, SVG Export Plug-In . SVG Version: 6.00 Build 0)  -->
<svg version="1.1" id="Capa_1" xmlns="http://www.w3.org/2000/svg" xmlns:xlink="http://www.w3.org/1999/xlink" x="0px" y="0px"
	 viewBox="0 0 449.5 52.9" style="enable-background:new 0 0 449.5 52.9;" xml:space="preserve">
<style type="text/css">
	.st0{fill:#FFFFFF;}
	.st1{fill:#00AACC;}
</style>
<g>
	<g>
		<path class="st0" d="M126.9,35.9h-4.1v9h-3.9v-9h-12.5v-2.2l7.7-24h4.1l-7.3,22.4h8.1l0.2-11.9h3.6v11.9h4.1V35.9z"/>
		<path class="st0" d="M150,35.9h-4.1v9H142v-9h-12.5v-2.2l7.7-24h4.1L134,32.1h8.1l0.2-11.9h3.6v11.9h4.1V35.9z"/>
		<path class="st0" d="M185.4,28.2v16.7h-3.9V28.4c0-5-1.5-6.8-4-6.8c-3.1,0-5.2,2.6-5.2,7.1v16.2h-3.9V28.4c0-5-1.6-6.8-4.1-6.8
			c-3.1,0-5.1,2.6-5.1,7.1v16.2h-3.9V18.5h3l0.5,3.2c1.3-2.4,3.4-3.8,6.4-3.8c2.9,0,5.1,1.5,6.3,4.5c1.3-2.8,3.6-4.5,7-4.5
			C182.7,17.8,185.4,21.2,185.4,28.2z"/>
		<path class="st0" d="M191,26.9c0-6,6.8-8.4,6.8-12.4c0-1.3-0.8-2.4-2.4-2.4c-1.4,0-2.3,0.9-2.3,2.8h-2c0.2-2.9,1.8-4.7,4.3-4.7
			c2.8,0,4.4,1.9,4.4,4.2c0,5-6.7,7.6-6.7,12.1h6.9v1.9h-9V26.9z"/>
	</g>
	<g>
		<path class="st0" d="M338.4,9.7v35.2h-3.9V15.1l-5.6,4.2v-4.7l6.2-4.9H338.4z"/>
		<path class="st0" d="M362.7,32.9v2.5c0,6.6-3.3,10-8.8,10c-5.2,0-8.8-3.3-8.9-9.9h4c0.2,4.6,2.2,6.1,4.9,6.1c3.3,0,5-1.9,5-6.3V33
			c0-4.1-2.1-5.7-5.5-5.7h-3.2v-3l6.8-10.9h-10.8V9.7h15.8v2.7l-7.4,11.6C360,24.2,362.7,27.7,362.7,32.9z"/>
		<path class="st0" d="M387.7,34.7v1c0,6.1-3.5,9.8-9.2,9.8c-5.7,0-9.2-3.7-9.2-9.8v-1c0-3.6,1.6-6.6,4.2-8
			c-2.3-1.6-3.6-4.4-3.6-7.5v-0.8c0-5.7,3.3-9.2,8.6-9.2c5.3,0,8.6,3.5,8.6,9.2v0.8c0,3.2-1.4,5.9-3.6,7.5
			C386.1,28.1,387.7,31,387.7,34.7z M383.7,34.7c0-3.8-1.9-6-5.2-6c-3.3,0-5.3,2.2-5.3,6v1c0,3.8,2,5.9,5.3,5.9
			c3.3,0,5.2-2.2,5.2-5.9V34.7z M373.8,19.2c0,3.7,1.7,5.7,4.7,5.7c3,0,4.7-2.1,4.7-5.7v-0.7c0-3.5-1.7-5.4-4.7-5.4
			c-3,0-4.7,1.9-4.7,5.4V19.2z"/>
		<path class="st0" d="M425.3,28.2v16.7h-3.9V28.4c0-5-1.5-6.8-4-6.8c-3.1,0-5.2,2.6-5.2,7.1v16.2h-3.9V28.4c0-5-1.6-6.8-4.1-6.8
			c-3.1,0-5.1,2.6-5.1,7.1v16.2h-3.9V18.5h3l0.5,3.2c1.3-2.4,3.4-3.8,6.4-3.8c2.9,0,5.1,1.5,6.3,4.5c1.3-2.8,3.6-4.5,7-4.5
			C422.6,17.8,425.3,21.2,425.3,28.2z"/>
		<path class="st0" d="M430.9,26.9c0-6,6.8-8.4,6.8-12.4c0-1.3-0.8-2.4-2.4-2.4c-1.4,0-2.3,0.9-2.3,2.8h-2c0.2-2.9,1.8-4.7,4.3-4.7
			c2.8,0,4.4,1.9,4.4,4.2c0,5-6.7,7.6-6.7,12.1h6.9v1.9h-9V26.9z"/>
	</g>
	<g>
		<path class="st1" d="M25.7,28.1c0,3.1-0.9,5.5-2.6,7.2c-1.7,1.7-4.1,2.5-7.2,2.5h-6V19.2h6.5c3,0,5.3,0.8,6.9,2.3
			C24.9,23,25.7,25.2,25.7,28.1z M20.5,28.3c0-1.7-0.3-3-1-3.8s-1.7-1.2-3.1-1.2h-1.5v10.5H16c1.5,0,2.7-0.4,3.4-1.3
			C20.1,31.5,20.5,30.1,20.5,28.3z"/>
		<path class="st1" d="M40.1,37.8H29V19.2h11.1v4h-6v2.9h5.6v4h-5.6v3.5h6V37.8z"/>
		<path class="st1" d="M55.6,32.2c0,1.2-0.3,2.2-0.9,3.1c-0.6,0.9-1.4,1.6-2.5,2.1c-1.1,0.5-2.4,0.7-3.9,0.7c-1.2,0-2.3-0.1-3.1-0.3
			c-0.8-0.2-1.7-0.5-2.6-0.9v-4.5c1,0.5,2,0.9,3,1.2s2,0.4,2.9,0.4c0.7,0,1.3-0.1,1.6-0.4c0.3-0.3,0.5-0.6,0.5-1
			c0-0.3-0.1-0.5-0.2-0.7c-0.1-0.2-0.4-0.4-0.7-0.6c-0.3-0.2-1.1-0.6-2.5-1.2c-1.2-0.6-2.1-1.1-2.7-1.6s-1.1-1.1-1.4-1.8
			c-0.3-0.7-0.4-1.5-0.4-2.4c0-1.7,0.6-3.1,1.9-4c1.3-1,3-1.4,5.2-1.4c1.9,0,3.9,0.4,5.9,1.3L54,24.2c-1.7-0.8-3.3-1.2-4.5-1.2
			c-0.7,0-1.1,0.1-1.4,0.3c-0.3,0.2-0.4,0.5-0.4,0.9c0,0.4,0.2,0.7,0.6,1c0.4,0.3,1.4,0.8,3.1,1.6c1.6,0.7,2.7,1.5,3.3,2.3
			C55.3,29.9,55.6,30.9,55.6,32.2z"/>
		<path class="st1" d="M74.3,28.1c0,3.1-0.9,5.5-2.6,7.2c-1.7,1.7-4.1,2.5-7.2,2.5h-6V19.2h6.5c3,0,5.3,0.8,6.9,2.3
			C73.5,23,74.3,25.2,74.3,28.1z M69.1,28.3c0-1.7-0.3-3-1-3.8s-1.7-1.2-3.1-1.2h-1.5v10.5h1.1c1.5,0,2.7-0.4,3.4-1.3
			C68.7,31.5,69.1,30.1,69.1,28.3z"/>
		<path class="st1" d="M88.7,37.8H77.7V19.2h11.1v4h-6v2.9h5.6v4h-5.6v3.5h6V37.8z"/>
	</g>
	<g>
		<path class="st1" d="M241.8,37.8h-5.1v-7.6h-5.9v7.6h-5.1V19.2h5.1v6.9h5.9v-6.9h5.1V37.8z"/>
		<path class="st1" d="M257.3,37.8l-0.9-3.5h-6.1l-0.9,3.5h-5.5l6.1-18.7h6.7l6.2,18.7H257.3z M255.4,30.2l-0.8-3.1
			c-0.2-0.7-0.4-1.6-0.7-2.6c-0.3-1.1-0.4-1.9-0.5-2.3c-0.1,0.4-0.2,1.1-0.5,2.1c-0.2,1-0.7,3-1.5,5.9H255.4z"/>
		<path class="st1" d="M277,32.2c0,1.2-0.3,2.2-0.9,3.1c-0.6,0.9-1.4,1.6-2.5,2.1c-1.1,0.5-2.4,0.7-3.9,0.7c-1.2,0-2.3-0.1-3.1-0.3
			c-0.8-0.2-1.7-0.5-2.6-0.9v-4.5c1,0.5,2,0.9,3,1.2s2,0.4,2.9,0.4c0.7,0,1.3-0.1,1.6-0.4c0.3-0.3,0.5-0.6,0.5-1
			c0-0.3-0.1-0.5-0.2-0.7c-0.1-0.2-0.4-0.4-0.7-0.6c-0.3-0.2-1.1-0.6-2.5-1.2c-1.2-0.6-2.1-1.1-2.7-1.6s-1.1-1.1-1.4-1.8
			c-0.3-0.7-0.4-1.5-0.4-2.4c0-1.7,0.6-3.1,1.9-4c1.3-1,3-1.4,5.2-1.4c1.9,0,3.9,0.4,5.9,1.3l-1.5,3.9c-1.7-0.8-3.3-1.2-4.5-1.2
			c-0.7,0-1.1,0.1-1.4,0.3c-0.3,0.2-0.4,0.5-0.4,0.9c0,0.4,0.2,0.7,0.6,1c0.4,0.3,1.4,0.8,3.1,1.6c1.6,0.7,2.7,1.5,3.3,2.3
			C276.7,29.9,277,30.9,277,32.2z"/>
		<path class="st1" d="M288.2,37.8h-5V23.3h-4.6v-4.1h14.1v4.1h-4.5V37.8z"/>
		<path class="st1" d="M306.8,37.8l-0.9-3.5h-6.1l-0.9,3.5h-5.5l6.1-18.7h6.7l6.2,18.7H306.8z M304.9,30.2l-0.8-3.1
			c-0.2-0.7-0.4-1.6-0.7-2.6c-0.3-1.1-0.4-1.9-0.5-2.3c-0.1,0.4-0.2,1.1-0.5,2.1c-0.2,1-0.7,3-1.5,5.9H304.9z"/>
	</g>
</g>
</svg>
