<?xml version="1.0" encoding="utf-8"?>
<!-- Generator: Adobe Illustrator 23.0.0, SVG Export Plug-In . SVG Version: 6.00 Build 0)  -->
<svg version="1.1" id="Capa_1" xmlns="http://www.w3.org/2000/svg" xmlns:xlink="http://www.w3.org/1999/xlink" x="0px" y="0px"
	 viewBox="0 0 23.81 23.81" enable-background="new 0 0 23.81 23.81" xml:space="preserve">
<g id="surface1_1_">
	<path fill="#00AACC" d="M20.67,7.19l0-0.02c-0.01-0.2-0.01-0.41-0.02-0.64c-0.02-1.14-0.92-2.08-2.06-2.14
		c-2.37-0.13-4.21-0.91-5.78-2.43L12.8,1.94c-0.51-0.47-1.28-0.47-1.79,0L11,1.95c-1.57,1.53-3.4,2.3-5.78,2.43
		c-1.14,0.06-2.04,1-2.06,2.14c0,0.23-0.01,0.44-0.02,0.64l0,0.04c-0.05,2.42-0.1,5.43,0.9,8.16c0.55,1.5,1.39,2.81,2.49,3.88
		c1.25,1.22,2.89,2.19,4.88,2.89c0.06,0.02,0.13,0.04,0.2,0.05c0.1,0.02,0.19,0.03,0.29,0.03s0.19-0.01,0.29-0.03
		c0.07-0.01,0.14-0.03,0.2-0.05c1.98-0.69,3.62-1.66,4.87-2.89c1.1-1.07,1.94-2.38,2.49-3.88C20.78,12.63,20.72,9.61,20.67,7.19z
		 M18.63,14.95C17.57,17.83,15.4,19.81,12,21c-0.01,0-0.03,0.01-0.04,0.01c-0.04,0.01-0.07,0.01-0.11,0c-0.01,0-0.03-0.01-0.04-0.01
		c-3.4-1.19-5.57-3.16-6.63-6.04c-0.93-2.52-0.88-5.28-0.83-7.72l0-0.01c0.01-0.21,0.02-0.43,0.02-0.67
		C4.38,6.04,4.78,5.63,5.29,5.6c1.34-0.07,2.52-0.33,3.61-0.79c1.08-0.46,2.04-1.1,2.94-1.97c0.05-0.04,0.1-0.04,0.15,0
		c0.89,0.87,1.86,1.52,2.94,1.97C16,5.26,17.18,5.52,18.53,5.6c0.51,0.03,0.91,0.45,0.92,0.95c0,0.24,0.01,0.46,0.02,0.67
		C19.51,9.66,19.56,12.43,18.63,14.95z"/>
	<path fill="#00AACC" d="M11.91,6.77c-2.84,0-5.14,2.31-5.14,5.14c0,2.84,2.31,5.14,5.14,5.14c2.84,0,5.14-2.31,5.14-5.14
		C17.05,9.07,14.74,6.77,11.91,6.77z M11.91,15.84c-2.17,0-3.93-1.76-3.93-3.93s1.76-3.93,3.93-3.93c2.17,0,3.93,1.76,3.93,3.93
		S14.07,15.84,11.91,15.84z"/>
	<path fill="#00AACC" d="M13.38,10.31L11,12.7l-0.65-0.65c-0.24-0.24-0.62-0.24-0.86,0c-0.24,0.24-0.24,0.62,0,0.86l1.08,1.08
		c0.12,0.12,0.27,0.18,0.43,0.18c0.15,0,0.31-0.06,0.43-0.18l2.82-2.82c0.24-0.24,0.24-0.62,0-0.86
		C14,10.07,13.62,10.07,13.38,10.31z"/>
</g>
<g>
</g>
<g>
</g>
<g>
</g>
<g>
</g>
<g>
</g>
<g>
</g>
<g>
</g>
<g>
</g>
<g>
</g>
<g>
</g>
<g>
</g>
<g>
</g>
<g>
</g>
<g>
</g>
<g>
</g>
</svg>
