<?xml version="1.0" encoding="utf-8"?>
<!-- Generator: Adobe Illustrator 23.0.0, SVG Export Plug-In . SVG Version: 6.00 Build 0)  -->
<svg version="1.1" id="Capa_1" xmlns="http://www.w3.org/2000/svg" xmlns:xlink="http://www.w3.org/1999/xlink" x="0px" y="0px"
	 viewBox="0 0 23.81 23.81" enable-background="new 0 0 23.81 23.81" xml:space="preserve">
<g>
	<path fill="#00AACC" d="M21.63,10.98l-9.32-8.34c-0.02-0.02-0.03-0.03-0.05-0.04c-0.2-0.2-0.53-0.2-0.75-0.01l-9.32,8.34
		c-0.23,0.2-0.24,0.55-0.04,0.78c0.11,0.12,0.26,0.18,0.41,0.18c0.13,0,0.26-0.04,0.37-0.14l1.68-1.5v0.29v4.35v5.08
		c0,0.76,0.62,1.39,1.39,1.39c0.01,0,0.02,0,0.03,0c0.01,0,0.02,0,0.03,0h2.88c0.72,0,1.3-0.58,1.3-1.3v-4.94
		c0-0.11,0.09-0.2,0.2-0.2h2.97c0.11,0,0.2,0.09,0.2,0.2v4.94c0,0.72,0.58,1.3,1.3,1.3h2.94c0.77,0,1.39-0.76,1.39-1.74v-4.53v-1.39
		v-3.4l1.68,1.5c0.11,0.09,0.24,0.14,0.37,0.14c0.15,0,0.3-0.06,0.41-0.18C21.87,11.53,21.85,11.19,21.63,10.98z M18.12,13.7v1.39
		v4.53c0,0.4-0.2,0.64-0.29,0.64h-2.94c-0.11,0-0.2-0.09-0.2-0.2v-4.93c0-0.72-0.58-1.3-1.3-1.3h-2.97c-0.72,0-1.3,0.58-1.3,1.3
		v4.94c0,0.11-0.09,0.2-0.2,0.2H6.04c-0.01,0-0.02,0-0.03,0s-0.02,0-0.03,0c-0.15,0-0.29-0.13-0.29-0.29v-5.08v-4.35V9.26l6.19-5.53
		l6.24,5.58L18.12,13.7L18.12,13.7z"/>
</g>
<g>
</g>
<g>
</g>
<g>
</g>
<g>
</g>
<g>
</g>
<g>
</g>
<g>
</g>
<g>
</g>
<g>
</g>
<g>
</g>
<g>
</g>
<g>
</g>
<g>
</g>
<g>
</g>
<g>
</g>
</svg>
