<?xml version="1.0" encoding="utf-8"?>
<!-- Generator: Adobe Illustrator 23.0.0, SVG Export Plug-In . SVG Version: 6.00 Build 0)  -->
<svg version="1.1" id="Capa_1" xmlns="http://www.w3.org/2000/svg" xmlns:xlink="http://www.w3.org/1999/xlink" x="0px" y="0px"
	 viewBox="0 0 23.81 23.81" enable-background="new 0 0 23.81 23.81" xml:space="preserve">
<g id="Page-1_3_">
	<g id="_x30_20---Lift_1_">
		<path id="Shape_17_" fill="#00AACC" d="M4.04,1.14c-0.99,0-1.79,0.8-1.79,1.79v17.94c0,0.99,0.8,1.79,1.79,1.79h15.74
			c0.99,0,1.79-0.8,1.79-1.79V2.94c0-0.99-0.8-1.79-1.79-1.79H4.04z M7.26,21.59v-7.53c0-0.2-0.16-0.36-0.36-0.36
			c-0.2,0-0.36,0.16-0.36,0.36v2.15c0,0.2-0.16,0.36-0.36,0.36s-0.36-0.16-0.36-0.36v-3.23c0-0.4,0.32-0.72,0.72-0.72h3.58
			c0.4,0,0.72,0.32,0.72,0.72v3.23c0,0.2-0.16,0.36-0.36,0.36c-0.2,0-0.36-0.16-0.36-0.36v-2.15c0-0.2-0.16-0.36-0.36-0.36
			c-0.2,0-0.36,0.16-0.36,0.36v7.53c0,0.2-0.16,0.36-0.36,0.36c-0.2,0-0.36-0.16-0.36-0.36v-4.31c0-0.2-0.16-0.36-0.36-0.36
			c-0.2,0-0.36,0.16-0.36,0.36v4.31c0,0.2-0.16,0.36-0.36,0.36C7.42,21.95,7.26,21.79,7.26,21.59z M14.41,21.59v-7.53
			c0-0.2-0.16-0.36-0.36-0.36c-0.2,0-0.36,0.16-0.36,0.36v2.15c0,0.2-0.16,0.36-0.36,0.36c-0.2,0-0.36-0.16-0.36-0.36v-3.23
			c0-0.4,0.32-0.72,0.72-0.72h3.58c0.4,0,0.72,0.32,0.72,0.72v3.23c0,0.2-0.16,0.36-0.36,0.36s-0.36-0.16-0.36-0.36v-2.15
			c0-0.2-0.16-0.36-0.36-0.36s-0.36,0.16-0.36,0.36v7.53c0,0.2-0.16,0.36-0.36,0.36s-0.36-0.16-0.36-0.36v-4.31
			c0-0.2-0.16-0.36-0.36-0.36s-0.36,0.16-0.36,0.36v4.31c0,0.2-0.16,0.36-0.36,0.36C14.57,21.95,14.41,21.79,14.41,21.59z
			 M17.21,21.95c0.04-0.11,0.06-0.24,0.07-0.36v-4.37c0.11,0.04,0.24,0.06,0.36,0.07c0.59,0,1.07-0.48,1.07-1.08v-3.23
			c0-0.79-0.64-1.44-1.43-1.44H13.7c-0.79,0-1.43,0.64-1.43,1.44v3.23c0,0.59,0.48,1.08,1.07,1.08c0.12,0,0.24-0.02,0.36-0.07v4.37
			c0,0.12,0.02,0.24,0.07,0.36h-3.71c0.04-0.11,0.06-0.24,0.07-0.36v-4.37c0.11,0.04,0.24,0.06,0.36,0.07
			c0.59,0,1.07-0.48,1.07-1.08v-3.23c0-0.79-0.64-1.44-1.43-1.44H6.54c-0.79,0-1.43,0.64-1.43,1.44v3.23c0,0.59,0.48,1.08,1.07,1.08
			c0.12,0,0.24-0.02,0.36-0.07v4.37c0,0.12,0.02,0.24,0.07,0.36H4.39V7.96c0-0.2,0.16-0.36,0.36-0.36h14.31
			c0.2,0,0.36,0.16,0.36,0.36v13.99H17.21z M20.85,2.94v17.94c0,0.45-0.29,0.86-0.72,1.01V7.96c0-0.59-0.48-1.08-1.07-1.08H4.75
			c-0.59,0-1.07,0.48-1.07,1.08v13.93c-0.43-0.15-0.71-0.56-0.72-1.01V2.94c0-0.59,0.48-1.08,1.07-1.08h15.74
			C20.37,1.86,20.85,2.34,20.85,2.94z"/>
		<path id="Shape_16_" fill="#00AACC" d="M15.48,2.58H8.33c-0.59,0-1.07,0.48-1.07,1.08v1.44c0,0.59,0.48,1.08,1.07,1.08h7.16
			c0.59,0,1.07-0.48,1.07-1.08V3.66C16.56,3.06,16.08,2.58,15.48,2.58z M15.84,5.09c0,0.2-0.16,0.36-0.36,0.36H8.33
			c-0.2,0-0.36-0.16-0.36-0.36V3.66c0-0.2,0.16-0.36,0.36-0.36h7.16c0.2,0,0.36,0.16,0.36,0.36V5.09z"/>
		<path id="Shape_15_" fill="#00AACC" d="M10.94,3.76l-0.46,0.46l-0.46-0.46c-0.09-0.09-0.22-0.13-0.35-0.1S9.44,3.79,9.41,3.92
			c-0.03,0.13,0,0.26,0.1,0.35l0.72,0.72c0.14,0.14,0.37,0.14,0.51,0l0.72-0.72c0.09-0.09,0.13-0.22,0.1-0.35
			c-0.03-0.13-0.13-0.22-0.26-0.26S11.03,3.67,10.94,3.76z"/>
		<path id="Shape_14_" fill="#00AACC" d="M13.59,3.76c-0.14-0.14-0.37-0.14-0.51,0l-0.72,0.72c-0.14,0.14-0.13,0.36,0,0.5
			c0.14,0.14,0.36,0.14,0.5,0l0.46-0.46l0.46,0.46c0.14,0.14,0.36,0.13,0.5,0c0.14-0.14,0.14-0.36,0-0.5L13.59,3.76z"/>
		<path id="Shape_13_" fill="#00AACC" d="M8.33,8.32c-0.79,0-1.43,0.64-1.43,1.44s0.64,1.44,1.43,1.44s1.43-0.64,1.43-1.44
			S9.12,8.32,8.33,8.32z M8.33,10.47c-0.4,0-0.72-0.32-0.72-0.72s0.32-0.72,0.72-0.72c0.4,0,0.72,0.32,0.72,0.72
			S8.72,10.47,8.33,10.47z"/>
		<path id="Shape_12_" fill="#00AACC" d="M15.48,8.32c-0.79,0-1.43,0.64-1.43,1.44s0.64,1.44,1.43,1.44s1.43-0.64,1.43-1.44
			S16.28,8.32,15.48,8.32z M15.48,10.47c-0.4,0-0.72-0.32-0.72-0.72s0.32-0.72,0.72-0.72s0.72,0.32,0.72,0.72
			S15.88,10.47,15.48,10.47z"/>
	</g>
</g>
<g>
</g>
<g>
</g>
<g>
</g>
<g>
</g>
<g>
</g>
<g>
</g>
<g>
</g>
<g>
</g>
<g>
</g>
<g>
</g>
<g>
</g>
<g>
</g>
<g>
</g>
<g>
</g>
<g>
</g>
</svg>
