<?xml version="1.0" encoding="utf-8"?>
<!-- Generator: Adobe Illustrator 23.0.0, SVG Export Plug-In . SVG Version: 6.00 Build 0)  -->
<svg version="1.1" id="Capa_1" xmlns="http://www.w3.org/2000/svg" xmlns:xlink="http://www.w3.org/1999/xlink" x="0px" y="0px"
	 viewBox="0 0 49.3 49.3" style="enable-background:new 0 0 49.3 49.3;" xml:space="preserve">
<style type="text/css">
	.st0{fill:#00AACC;}
	.st1{fill:#FFFFFF;}
</style>
<g>
	<circle class="st0" cx="24.6" cy="24.6" r="24"/>
	<path class="st1" d="M17.4,23.4c0,0.7-0.5,1.2-1.2,1.2c-0.7,0-1.2-0.5-1.2-1.2c0-0.7,0.5-1.2,1.2-1.2
		C16.8,22.2,17.4,22.8,17.4,23.4z M42.8,26.5c0,1.8-1.3,3.3-3,3.6c-0.7,2.1-2,4.1-3.9,5.6l-1.6,4.8c-0.2,0.7-0.8,1.1-1.5,1.1h-2
		c-0.7,0-1.4-0.5-1.6-1.2l-0.4-1.5c-1.3,0.2-2.6,0.4-4.1,0.4c-1.4,0-2.7-0.1-3.9-0.3l-0.4,1.5c-0.2,0.7-0.8,1.2-1.6,1.2h-2
		c-0.7,0-1.3-0.4-1.5-1.1l-1.4-4.1c-2.2-1.2-4-2.7-5.6-4.1c-1.8-1.5-1.8-1.6-1.8-4c0-0.5,0-2,0-3.1c0-0.9,0.7-1.7,1.5-1.7h0.8
		c1.4,0,3.2-2.2,3.9-4c-0.1-1.3-0.8-3.2-1.2-4.1c-0.5-1.1-0.1-1.3,0.2-1.4c1-0.5,3.6,0.4,5.5,1.7c0.9-0.5,1.9-0.9,3-1.3
		c-0.2-0.6-0.4-1.2-0.4-1.8c0-2.7,2.2-4.8,4.8-4.8c2.7,0,4.8,2.2,4.8,4.8c0,0.6-0.1,1.2-0.3,1.7c5.5,1.2,9.3,4.5,10.7,8.7
		C41.5,23.3,42.8,24.7,42.8,26.5z M21,12.5c0,2,1.6,3.6,3.6,3.6c2,0,3.6-1.6,3.6-3.6c0-2-1.6-3.6-3.6-3.6C22.6,8.9,21,10.5,21,12.5z
		 M39.1,26.4c0-5.7-4.2-9.9-10.6-11.1c-0.3,0.4-0.7,0.8-1.1,1.1c0.5,0.1,1,0.1,1.5,0.3c0.3,0.1,0.5,0.4,0.5,0.7
		c-0.1,0.3-0.4,0.5-0.7,0.5c-1.3-0.3-2.7-0.5-4.1-0.5c-1.6,0-2.9,0.2-4,0.6c-0.1,0-0.1,0-0.2,0c-0.2,0-0.5-0.1-0.6-0.4
		c-0.1-0.3,0-0.7,0.4-0.8c0.5-0.2,1.1-0.3,1.7-0.4c-0.4-0.3-0.8-0.6-1.1-1c-1.1,0.3-2.1,0.7-3,1.2l-0.7,0.4l-0.6-0.4
		c-0.7-0.5-2.5-1.4-3.6-1.7c-0.1,0-0.1,0-0.2,0.1c0,0-0.1,0.1,0,0.2c0.4,1,1.2,3.5,1.3,4.2c0,0.2,0,0.4-0.1,0.5
		c-0.8,2-3,4.7-5.1,4.7H8.3c-0.3,0-0.6,0.3-0.6,0.6v3c0,1.9,0,1.9,1.3,3.1c1.8,1.6,3.7,3.1,5.8,4.2l1.5,4.5c0.1,0.2,0.2,0.3,0.4,0.3
		h2c0.2,0,0.4-0.1,0.4-0.3l0.7-2.6c1.4,0.3,3,0.5,4.8,0.5c1.8,0,3.5-0.2,5-0.6l0.7,2.7c0,0.2,0.2,0.3,0.4,0.3h2
		c0.2,0,0.3-0.1,0.4-0.3l1.8-5.2C37.6,32.9,39.1,29.9,39.1,26.4z M41.6,26.5c0-1-0.6-1.8-1.4-2.2c0.1,0.7,0.2,1.4,0.2,2.1
		c0,0.8-0.1,1.5-0.2,2.3C41,28.3,41.6,27.5,41.6,26.5z"/>
</g>
<g>
</g>
<g>
</g>
<g>
</g>
<g>
</g>
<g>
</g>
<g>
</g>
<g>
</g>
<g>
</g>
<g>
</g>
<g>
</g>
<g>
</g>
<g>
</g>
<g>
</g>
<g>
</g>
<g>
</g>
</svg>
