<?xml version="1.0" encoding="utf-8"?>
<!-- Generator: Adobe Illustrator 23.0.0, SVG Export Plug-In . SVG Version: 6.00 Build 0)  -->
<svg version="1.1" id="Capa_1" xmlns="http://www.w3.org/2000/svg" xmlns:xlink="http://www.w3.org/1999/xlink" x="0px" y="0px"
	 viewBox="0 0 49.3 49.3" style="enable-background:new 0 0 49.3 49.3;" xml:space="preserve">
<style type="text/css">
	.st0{fill:#00AACC;}
	.st1{fill:#FFFFFF;}
</style>
<g>
	<g>
		<circle class="st0" cx="24.6" cy="24.6" r="24"/>
	</g>
</g>
<g>
	<path class="st1" d="M32.2,21.8h-4.7v-4.7c0-0.6-0.4-1-1-1h-3.7c-0.6,0-1,0.4-1,1v4.7h-4.7c-0.6,0-1,0.4-1,1v3.7c0,0.6,0.4,1,1,1
		h4.7v4.7c0,0.6,0.4,1,1,1h3.7c0.6,0,1-0.4,1-1v-4.7h4.7c0.6,0,1-0.4,1-1v-3.7C33.2,22.2,32.7,21.8,32.2,21.8z"/>
	<path class="st1" d="M24.6,10C16.5,10,10,16.5,10,24.6s6.6,14.7,14.7,14.7s14.7-6.6,14.7-14.7S32.7,10,24.6,10z M33.3,33.3
		c-2.3,2.3-5.4,3.6-8.6,3.6s-6.3-1.3-8.6-3.6c-2.3-2.3-3.6-5.4-3.6-8.6s1.3-6.3,3.6-8.6c2.3-2.3,5.4-3.6,8.6-3.6s6.3,1.3,8.6,3.6
		c2.3,2.3,3.6,5.4,3.6,8.6S35.6,31,33.3,33.3z"/>
</g>
<g>
</g>
<g>
</g>
<g>
</g>
<g>
</g>
<g>
</g>
<g>
</g>
<g>
</g>
<g>
</g>
<g>
</g>
<g>
</g>
<g>
</g>
<g>
</g>
<g>
</g>
<g>
</g>
<g>
</g>
</svg>
