<?xml version="1.0" encoding="utf-8"?>
<!-- Generator: Adobe Illustrator 23.0.0, SVG Export Plug-In . SVG Version: 6.00 Build 0)  -->
<svg version="1.1" id="Capa_1" xmlns="http://www.w3.org/2000/svg" xmlns:xlink="http://www.w3.org/1999/xlink" x="0px" y="0px"
	 viewBox="0 0 23.81 23.81" enable-background="new 0 0 23.81 23.81" xml:space="preserve">
<g>
	<g id="SVGCleanerId_0">
		<g>
			<path fill="#00AACC" d="M16.57,14.06H7.24c-0.2,0-0.36,0.16-0.36,0.36v7.89c0,0.2,0.16,0.36,0.36,0.36h9.33
				c0.2,0,0.36-0.16,0.36-0.36v-7.89C16.93,14.22,16.77,14.06,16.57,14.06z M16.21,21.95H7.6v-7.18h8.61V21.95L16.21,21.95z"/>
		</g>
	</g>
	<g>
		<g>
			<path fill="#00AACC" d="M16.57,14.06H7.24c-0.2,0-0.36,0.16-0.36,0.36v7.89c0,0.2,0.16,0.36,0.36,0.36h9.33
				c0.2,0,0.36-0.16,0.36-0.36v-7.89C16.93,14.22,16.77,14.06,16.57,14.06z M16.21,21.95H7.6v-7.18h8.61V21.95L16.21,21.95z"/>
		</g>
	</g>
	<g>
		<g>
			<path fill="#00AACC" d="M7.24,14.06H1.5c-0.2,0-0.36,0.16-0.36,0.36v7.89c0,0.2,0.16,0.36,0.36,0.36h5.74
				c0.2,0,0.36-0.16,0.36-0.36v-7.89C7.6,14.22,7.44,14.06,7.24,14.06z M6.88,21.95H1.86v-7.18h5.02L6.88,21.95L6.88,21.95z"/>
		</g>
	</g>
	<g>
		<g>
			<path fill="#00AACC" d="M22.31,14.06h-5.74c-0.2,0-0.36,0.16-0.36,0.36v7.89c0,0.2,0.16,0.36,0.36,0.36h5.74
				c0.2,0,0.36-0.16,0.36-0.36v-7.89C22.67,14.22,22.51,14.06,22.31,14.06z M21.95,21.95h-5.02v-7.18h5.02L21.95,21.95L21.95,21.95z
				"/>
		</g>
	</g>
	<g>
		<g>
			<path fill="#00AACC" d="M15.14,16.93H8.68c-0.2,0-0.36,0.16-0.36,0.36v3.59c0,0.2,0.16,0.36,0.36,0.36h6.46
				c0.2,0,0.36-0.16,0.36-0.36v-3.59C15.49,17.09,15.33,16.93,15.14,16.93z M14.78,20.52H9.04v-2.87h5.74L14.78,20.52L14.78,20.52z"
				/>
		</g>
	</g>
	<g>
		<g>
			<rect x="12.27" y="15.49" fill="#00AACC" width="0.72" height="0.72"/>
		</g>
	</g>
	<g>
		<g>
			<rect x="10.83" y="15.49" fill="#00AACC" width="0.72" height="0.72"/>
		</g>
	</g>
	<g>
		<g>
			<rect x="9.4" y="15.49" fill="#00AACC" width="0.72" height="0.72"/>
		</g>
	</g>
	<g>
		<g>
			<rect x="13.7" y="15.49" fill="#00AACC" width="0.72" height="0.72"/>
		</g>
	</g>
	<g>
		<g>
			<rect x="1.5" y="16.93" fill="#00AACC" width="5.74" height="0.72"/>
		</g>
	</g>
	<g>
		<g>
			<rect x="3.66" y="15.49" fill="#00AACC" width="1.44" height="0.72"/>
		</g>
	</g>
	<g>
		<g>
			<rect x="3.66" y="18.36" fill="#00AACC" width="1.44" height="0.72"/>
		</g>
	</g>
	<g>
		<g>
			<rect x="16.57" y="16.93" fill="#00AACC" width="5.74" height="0.72"/>
		</g>
	</g>
	<g>
		<g>
			<rect x="19.08" y="17.29" fill="#00AACC" width="0.72" height="5.02"/>
		</g>
	</g>
	<g>
		<g>
			<rect x="18.72" y="15.49" fill="#00AACC" width="1.44" height="0.72"/>
		</g>
	</g>
	<g>
		<g>
			<rect x="17.65" y="19.08" fill="#00AACC" width="0.72" height="1.08"/>
		</g>
	</g>
	<g>
		<g>
			<rect x="20.52" y="19.08" fill="#00AACC" width="0.72" height="1.08"/>
		</g>
	</g>
	<g>
		<g>
			<path fill="#00AACC" d="M16.47,6.99l-1.33-1.33V1.5c0-0.2-0.16-0.36-0.36-0.36H9.04c-0.2,0-0.36,0.16-0.36,0.36v4.16L7.35,6.99
				c-0.1,0.1-0.13,0.26-0.08,0.39C7.33,7.51,7.46,7.6,7.6,7.6h8.61c0.14,0,0.28-0.09,0.33-0.22C16.6,7.25,16.57,7.09,16.47,6.99z
				 M8.47,6.88l0.82-0.82C9.36,5.99,9.4,5.9,9.4,5.81V1.86h5.02v3.95c0,0.1,0.04,0.19,0.11,0.25l0.82,0.82L8.47,6.88L8.47,6.88z"/>
		</g>
	</g>
	<g>
		<g>
			<path fill="#00AACC" d="M20.52,9.04c-0.79,0-1.44,0.64-1.44,1.44v0.36h0.72v-0.36c0-0.4,0.32-0.72,0.72-0.72
				c0.4,0,0.72,0.32,0.72,0.72v3.95h0.72v-3.95C21.95,9.68,21.31,9.04,20.52,9.04z"/>
		</g>
	</g>
	<g>
		<g>
			<rect x="20.52" y="12.62" fill="#00AACC" width="1.08" height="0.72"/>
		</g>
	</g>
	<g>
		<g>
			<path fill="#00AACC" d="M11.55,11.91H7.96c-0.2,0-0.36,0.16-0.36,0.36v2.15c0,0.2,0.16,0.36,0.36,0.36h3.59
				c0.2,0,0.36-0.16,0.36-0.36v-2.15C11.91,12.07,11.75,11.91,11.55,11.91z M11.19,14.06H8.32v-1.44h2.87V14.06z"/>
		</g>
	</g>
	<g>
		<g>
			<rect x="6.88" y="12.62" fill="#00AACC" width="1.08" height="0.72"/>
		</g>
	</g>
	<g>
		<g>
			<rect x="11.55" y="12.62" fill="#00AACC" width="1.08" height="0.72"/>
		</g>
	</g>
	<g>
		<g>
			<path fill="#00AACC" d="M7.24,1.14H1.5c-0.2,0-0.36,0.16-0.36,0.36v4.31c0,0.2,0.16,0.36,0.36,0.36h5.74
				c0.2,0,0.36-0.16,0.36-0.36V1.5C7.6,1.31,7.44,1.14,7.24,1.14z M6.88,5.45H1.86V1.86h5.02L6.88,5.45L6.88,5.45z"/>
		</g>
	</g>
	<g>
		<g>
			<rect x="5.45" y="3.3" fill="#00AACC" width="0.72" height="1.44"/>
		</g>
	</g>
	<g>
		<g>
			<path fill="#00AACC" d="M22.31,1.14h-5.74c-0.2,0-0.36,0.16-0.36,0.36v4.31c0,0.2,0.16,0.36,0.36,0.36h5.74
				c0.2,0,0.36-0.16,0.36-0.36V1.5C22.67,1.31,22.51,1.14,22.31,1.14z M21.95,5.45h-5.02V1.86h5.02L21.95,5.45L21.95,5.45z"/>
		</g>
	</g>
	<g>
		<g>
			<rect x="17.65" y="3.3" fill="#00AACC" width="0.72" height="1.44"/>
		</g>
	</g>
	<g>
		<g>
			<rect x="1.14" y="8.32" fill="#00AACC" width="6.46" height="0.72"/>
		</g>
	</g>
	<g>
		<g>
			<rect x="1.86" y="7.6" fill="#00AACC" width="0.72" height="3.23"/>
		</g>
	</g>
	<g>
		<g>
			<path fill="#00AACC" d="M2.22,10.47c-0.59,0-1.08,0.48-1.08,1.08c0,0.59,0.48,1.08,1.08,1.08s1.08-0.48,1.08-1.08
				C3.3,10.95,2.81,10.47,2.22,10.47z M2.22,11.91c-0.2,0-0.36-0.16-0.36-0.36c0-0.2,0.16-0.36,0.36-0.36c0.2,0,0.36,0.16,0.36,0.36
				C2.58,11.75,2.42,11.91,2.22,11.91z"/>
		</g>
	</g>
	<g>
		<g>
			<rect x="3.3" y="7.6" fill="#00AACC" width="0.72" height="3.23"/>
		</g>
	</g>
	<g>
		<g>
			<path fill="#00AACC" d="M3.66,10.47c-0.59,0-1.08,0.48-1.08,1.08c0,0.59,0.48,1.08,1.08,1.08s1.08-0.48,1.08-1.08
				C4.73,10.95,4.25,10.47,3.66,10.47z M3.66,11.91c-0.2,0-0.36-0.16-0.36-0.36c0-0.2,0.16-0.36,0.36-0.36s0.36,0.16,0.36,0.36
				C4.01,11.75,3.85,11.91,3.66,11.91z"/>
		</g>
	</g>
	<g>
		<g>
			<rect x="4.73" y="7.6" fill="#00AACC" width="0.72" height="3.23"/>
		</g>
	</g>
	<g>
		<g>
			<path fill="#00AACC" d="M5.09,10.47c-0.59,0-1.08,0.48-1.08,1.08c0,0.59,0.48,1.08,1.08,1.08s1.08-0.48,1.08-1.08
				C6.17,10.95,5.68,10.47,5.09,10.47z M5.09,11.91c-0.2,0-0.36-0.16-0.36-0.36c0-0.2,0.16-0.36,0.36-0.36
				c0.2,0,0.36,0.16,0.36,0.36C5.45,11.75,5.29,11.91,5.09,11.91z"/>
		</g>
	</g>
</g>
<g>
</g>
<g>
</g>
<g>
</g>
<g>
</g>
<g>
</g>
<g>
</g>
<g>
</g>
<g>
</g>
<g>
</g>
<g>
</g>
<g>
</g>
<g>
</g>
<g>
</g>
<g>
</g>
<g>
</g>
</svg>
