<?xml version="1.0" encoding="utf-8"?>
<!-- Generator: Adobe Illustrator 23.0.0, SVG Export Plug-In . SVG Version: 6.00 Build 0)  -->
<svg version="1.1" id="Capa_1" xmlns="http://www.w3.org/2000/svg" xmlns:xlink="http://www.w3.org/1999/xlink" x="0px" y="0px"
	 viewBox="0 0 49.3 49.3" style="enable-background:new 0 0 49.3 49.3;" xml:space="preserve">
<style type="text/css">
	.st0{fill:#00AACC;}
	.st1{fill:none;stroke:#FFFFFF;stroke-width:1.3213;stroke-linecap:round;stroke-linejoin:round;stroke-miterlimit:10;}
	.st2{fill:none;stroke:#FFFFFF;stroke-width:1.3213;stroke-miterlimit:10;}
</style>
<g>
	<g>
		<circle class="st0" cx="24.6" cy="24.6" r="24"/>
	</g>
	<g>
		<g>
			<path class="st1" d="M24.6,16.1c1.6-3,4.9-3.8,8.3-3.8h5v21.1h-5c-3.4,0-6.7,0.8-8.3,3.8"/>
			<path class="st1" d="M14.3,12.2h-3v21.1h5c3.4,0,6.7,0.8,8.3,3.8"/>
			<path class="st1" d="M24.6,16.1c-1.2-2.2-3.3-3.3-5.7-3.7"/>
		</g>
		<line class="st1" x1="24.6" y1="16.3" x2="24.6" y2="36.3"/>
		<polygon class="st2" points="18.7,18 16.6,16.5 14.6,18 14.6,11.6 18.7,11.6 		"/>
		<path class="st1" d="M41.2,15.3v21.2H29c0,0-0.7,1.6-1.5,1.6c-0.2,0-5.6,0-5.8,0c-0.8,0-1.5-1.6-1.5-1.6H8.1V15.3"/>
	</g>
</g>
<g>
</g>
<g>
</g>
<g>
</g>
<g>
</g>
<g>
</g>
<g>
</g>
<g>
</g>
<g>
</g>
<g>
</g>
<g>
</g>
<g>
</g>
<g>
</g>
<g>
</g>
<g>
</g>
<g>
</g>
</svg>
