<?xml version="1.0" encoding="utf-8"?>
<!-- Generator: Adobe Illustrator 23.0.0, SVG Export Plug-In . SVG Version: 6.00 Build 0)  -->
<svg version="1.1" id="Capa_1" xmlns="http://www.w3.org/2000/svg" xmlns:xlink="http://www.w3.org/1999/xlink" x="0px" y="0px"
	 viewBox="0 0 23.81 23.81" enable-background="new 0 0 23.81 23.81" xml:space="preserve">
<g id="Storage_1_">
	<path fill="#00AACC" d="M3.76,20.32H3.01c-0.2,0-0.37,0.15-0.37,0.34s0.17,0.34,0.37,0.34h0.74c0.2,0,0.37-0.15,0.37-0.34
		S3.96,20.32,3.76,20.32z"/>
	<path fill="#00AACC" d="M3.76,19.31H3.01c-0.2,0-0.37,0.15-0.37,0.34s0.17,0.34,0.37,0.34h0.74c0.2,0,0.37-0.15,0.37-0.34
		S3.96,19.31,3.76,19.31z"/>
	<path fill="#00AACC" d="M10.42,20.32H9.68c-0.2,0-0.37,0.15-0.37,0.34s0.17,0.34,0.37,0.34h0.74c0.2,0,0.37-0.15,0.37-0.34
		S10.63,20.32,10.42,20.32z"/>
	<path fill="#00AACC" d="M10.42,19.31H9.68c-0.2,0-0.37,0.15-0.37,0.34s0.17,0.34,0.37,0.34h0.74c0.2,0,0.37-0.15,0.37-0.34
		S10.63,19.31,10.42,19.31z"/>
	<path fill="#00AACC" d="M17.09,20.32h-0.74c-0.2,0-0.37,0.15-0.37,0.34s0.17,0.34,0.37,0.34h0.74c0.2,0,0.37-0.15,0.37-0.34
		S17.3,20.32,17.09,20.32z"/>
	<path fill="#00AACC" d="M17.09,19.31h-0.74c-0.2,0-0.37,0.15-0.37,0.34s0.17,0.34,0.37,0.34h0.74c0.2,0,0.37-0.15,0.37-0.34
		S17.3,19.31,17.09,19.31z"/>
	<path fill="#00AACC" d="M21.91,14.6h-2.96V8.21c0-0.19-0.17-0.34-0.37-0.34h-2.96V2.15c0-0.19-0.17-0.34-0.37-0.34H8.57
		c-0.2,0-0.37,0.15-0.37,0.34v5.72H5.24c-0.2,0-0.37,0.15-0.37,0.34v6.39H1.9c-0.2,0-0.37,0.15-0.37,0.34v6.73
		C1.53,21.85,1.7,22,1.9,22h20.01c0.2,0,0.37-0.15,0.37-0.34v-6.73C22.28,14.75,22.12,14.6,21.91,14.6z M18.21,15.27h0.74v1.35
		h-0.74V15.27z M18.21,14.6h-5.93V8.54h1.85v1.68c0,0.19,0.17,0.34,0.37,0.34h1.48c0.2,0,0.37-0.15,0.37-0.34V8.54h1.85V14.6z
		 M11.54,15.27h0.74v1.35h-0.74V15.27z M15.61,8.54v1.35h-0.74V8.54H15.61z M12.28,2.49v0.67h-0.74V2.49H12.28z M8.94,2.49h1.85V3.5
		c0,0.19,0.17,0.34,0.37,0.34h1.48c0.2,0,0.37-0.15,0.37-0.34V2.49h1.85v5.38H8.94V2.49z M8.94,8.54v1.35H8.2V8.54H8.94z M5.61,8.54
		h1.85v1.68c0,0.19,0.17,0.34,0.37,0.34h1.48c0.2,0,0.37-0.15,0.37-0.34V8.54h1.85v6.05H5.61V8.54z M5.61,15.27v1.35H4.87v-1.35
		H5.61z M2.27,15.27h1.85v1.68c0,0.19,0.17,0.34,0.37,0.34h1.48c0.2,0,0.37-0.15,0.37-0.34v-1.68H8.2v6.05H2.27V15.27z M8.94,15.27
		h1.85v1.68c0,0.19,0.17,0.34,0.37,0.34h1.48c0.2,0,0.37-0.15,0.37-0.34v-1.68h1.85v6.05H8.94V15.27z M21.54,21.32h-5.93v-6.05h1.85
		v1.68c0,0.19,0.17,0.34,0.37,0.34h1.48c0.2,0,0.37-0.15,0.37-0.34v-1.68h1.85V21.32z"/>
	<path fill="#00AACC" d="M6.35,14.26h0.74c0.2,0,0.37-0.15,0.37-0.34c0-0.19-0.17-0.34-0.37-0.34H6.35c-0.2,0-0.37,0.15-0.37,0.34
		C5.98,14.11,6.14,14.26,6.35,14.26z"/>
	<path fill="#00AACC" d="M6.35,13.25h0.74c0.2,0,0.37-0.15,0.37-0.34c0-0.19-0.17-0.34-0.37-0.34H6.35c-0.2,0-0.37,0.15-0.37,0.34
		C5.98,13.1,6.14,13.25,6.35,13.25z"/>
	<path fill="#00AACC" d="M13.76,13.59h-0.74c-0.2,0-0.37,0.15-0.37,0.34c0,0.19,0.17,0.34,0.37,0.34h0.74c0.2,0,0.37-0.15,0.37-0.34
		C14.13,13.74,13.96,13.59,13.76,13.59z"/>
	<path fill="#00AACC" d="M13.76,12.58h-0.74c-0.2,0-0.37,0.15-0.37,0.34c0,0.19,0.17,0.34,0.37,0.34h0.74c0.2,0,0.37-0.15,0.37-0.34
		C14.13,12.73,13.96,12.58,13.76,12.58z"/>
	<path fill="#00AACC" d="M9.68,6.53h0.74c0.2,0,0.37-0.15,0.37-0.34c0-0.19-0.17-0.34-0.37-0.34H9.68c-0.2,0-0.37,0.15-0.37,0.34
		C9.31,6.38,9.48,6.53,9.68,6.53z"/>
	<path fill="#00AACC" d="M9.68,7.53h0.74c0.2,0,0.37-0.15,0.37-0.34c0-0.19-0.17-0.34-0.37-0.34H9.68c-0.2,0-0.37,0.15-0.37,0.34
		C9.31,7.38,9.48,7.53,9.68,7.53z"/>
</g>
<g>
</g>
<g>
</g>
<g>
</g>
<g>
</g>
<g>
</g>
<g>
</g>
<g>
</g>
<g>
</g>
<g>
</g>
<g>
</g>
<g>
</g>
<g>
</g>
<g>
</g>
<g>
</g>
<g>
</g>
</svg>
