<?xml version="1.0" encoding="utf-8"?>
<!-- Generator: Adobe Illustrator 23.0.0, SVG Export Plug-In . SVG Version: 6.00 Build 0)  -->
<svg version="1.1" id="Capa_1" xmlns="http://www.w3.org/2000/svg" xmlns:xlink="http://www.w3.org/1999/xlink" x="0px" y="0px"
	 viewBox="0 0 23.81 23.81" enable-background="new 0 0 23.81 23.81" xml:space="preserve">
<g id="surface1">
	<path fill="#00AACC" d="M19.11,19.31h0.76v0.76h-0.76V19.31z"/>
	<path fill="#00AACC" d="M5.46,9.44c-0.63,0-1.14,0.51-1.14,1.14s0.51,1.14,1.14,1.14c0.63,0,1.14-0.51,1.14-1.14
		S6.09,9.44,5.46,9.44z M5.46,10.96c-0.21,0-0.38-0.17-0.38-0.38c0-0.21,0.17-0.38,0.38-0.38c0.21,0,0.38,0.17,0.38,0.38
		C5.84,10.79,5.67,10.96,5.46,10.96z"/>
	<path fill="#00AACC" d="M18.35,9.44c-0.63,0-1.14,0.51-1.14,1.14s0.51,1.14,1.14,1.14c0.63,0,1.14-0.51,1.14-1.14
		S18.98,9.44,18.35,9.44z M18.35,10.96c-0.21,0-0.38-0.17-0.38-0.38c0-0.21,0.17-0.38,0.38-0.38c0.21,0,0.38,0.17,0.38,0.38
		C18.73,10.79,18.56,10.96,18.35,10.96z"/>
	<path fill="#00AACC" d="M23.01,4.9l-2.6-0.75L20.33,4.1c-0.05-0.03-0.1-0.06-0.15-0.09l-0.09-0.05c-4.17-2.49-9.41-2.3-13.39,0.49
		L6.08,4.9L3.46,5.27c-1.01,0.15-1.89,0.74-2.42,1.6C1.02,6.9,1,6.93,0.98,6.96c-0.17,0.3-0.29,0.63-0.36,0.97
		C0.6,7.99,0.59,8.05,0.58,8.1C0.57,8.16,0.56,8.22,0.56,8.28C0.55,8.38,0.54,8.49,0.54,8.6c0,0.01,0,0.03,0,0.04v1.94
		c0,0.21,0.17,0.38,0.38,0.38h1.92c0.08,0.58,0.35,1.11,0.77,1.52h-2.7c-0.21,0-0.38,0.17-0.38,0.38c0,1.51,0.99,2.83,2.43,3.27
		c-0.34,0.31-0.53,0.74-0.53,1.2v0.08c0,0.61,0.34,1.18,0.89,1.45l4.42,2.21c0.68,0.34,1.44,0.52,2.2,0.52H22.9
		c0.21,0,0.38-0.17,0.38-0.38v-5.32c0-0.21-0.17-0.38-0.38-0.38h-0.89c0.8-0.65,1.27-1.62,1.27-2.66c0-0.21-0.17-0.38-0.38-0.38
		h-2.7c0.42-0.41,0.69-0.94,0.77-1.52h0.41c0.12,0,0.22-0.05,0.3-0.14l1.52-1.9c0.05-0.07,0.08-0.15,0.08-0.24V5.26
		C23.28,5.09,23.17,4.94,23.01,4.9z M18.24,4.88H13.8v-1.9c1.86,0.01,3.7,0.46,5.35,1.33L18.24,4.88z M13.04,3.01v1.87H7.43
		C9.11,3.78,11.04,3.13,13.04,3.01z M1.33,8.23c0.01-0.07,0.03-0.15,0.05-0.22C1.4,7.92,1.42,7.84,1.45,7.76
		c0.01-0.02,0.02-0.05,0.03-0.07C1.5,7.63,1.52,7.58,1.55,7.52h0.88L1.86,8.29L1.32,8.29C1.32,8.27,1.32,8.25,1.33,8.23z M1.29,9.05
		l0.76-0.01c0.12,0,0.23-0.06,0.3-0.15l1.14-1.52c0.09-0.12,0.1-0.27,0.04-0.4c-0.06-0.13-0.2-0.21-0.34-0.21h-1.1
		c0.4-0.4,0.92-0.66,1.48-0.74l2.68-0.38h6.8v4.56H8.09c0-0.03-0.01-0.06-0.02-0.09C8.07,10.08,8.06,10.04,8.05,10
		C8.04,9.96,8.03,9.91,8.01,9.86C8,9.83,8,9.79,7.98,9.76c-0.02-0.05-0.03-0.1-0.05-0.14C7.92,9.59,7.91,9.56,7.9,9.53
		c-0.02-0.05-0.05-0.1-0.08-0.16C7.81,9.35,7.8,9.33,7.79,9.31C7.75,9.23,7.71,9.16,7.66,9.1C7.65,9.08,7.64,9.06,7.62,9.05
		C7.59,9,7.55,8.95,7.51,8.9C7.49,8.88,7.47,8.85,7.45,8.83c-0.03-0.04-0.07-0.08-0.1-0.11C7.33,8.69,7.3,8.67,7.28,8.65
		c-0.04-0.03-0.07-0.07-0.11-0.1C7.14,8.53,7.12,8.51,7.09,8.48C7.05,8.46,7.01,8.43,6.97,8.4C6.95,8.38,6.92,8.36,6.89,8.34
		C6.85,8.32,6.81,8.29,6.77,8.27C6.74,8.25,6.7,8.23,6.67,8.22C6.63,8.2,6.59,8.18,6.55,8.16c-0.03-0.01-0.07-0.03-0.1-0.04
		C6.4,8.09,6.36,8.08,6.31,8.06c-0.03-0.01-0.07-0.02-0.1-0.03C6.16,8.02,6.11,8,6.07,7.99C6.03,7.98,6,7.98,5.97,7.97
		C5.91,7.96,5.85,7.95,5.8,7.94c-0.03,0-0.06-0.01-0.08-0.01C5.64,7.92,5.55,7.92,5.46,7.92c-0.09,0-0.17,0.01-0.26,0.01
		c-0.03,0-0.06,0.01-0.08,0.01C5.06,7.95,5,7.96,4.95,7.97c-0.03,0.01-0.06,0.01-0.1,0.02C4.8,8.01,4.75,8.02,4.7,8.03
		C4.67,8.04,4.64,8.05,4.6,8.06C4.56,8.08,4.51,8.1,4.47,8.11C4.44,8.13,4.4,8.14,4.37,8.16C4.33,8.18,4.29,8.2,4.24,8.22
		C4.21,8.23,4.18,8.25,4.15,8.27C4.11,8.29,4.07,8.32,4.03,8.34C4,8.36,3.97,8.38,3.94,8.4C3.9,8.43,3.87,8.46,3.83,8.49
		C3.8,8.51,3.77,8.53,3.75,8.55c-0.04,0.03-0.07,0.06-0.11,0.1C3.61,8.67,3.59,8.69,3.57,8.72C3.53,8.75,3.5,8.79,3.46,8.83
		C3.44,8.86,3.42,8.88,3.4,8.9C3.37,8.95,3.33,9,3.29,9.05C3.28,9.07,3.27,9.08,3.26,9.1C3.21,9.17,3.17,9.24,3.13,9.31
		C3.12,9.33,3.11,9.35,3.1,9.37c-0.03,0.05-0.05,0.1-0.08,0.16C3.01,9.56,3,9.59,2.99,9.62C2.97,9.67,2.95,9.71,2.93,9.76
		C2.92,9.8,2.91,9.83,2.9,9.86c-0.01,0.05-0.03,0.09-0.04,0.14c-0.01,0.04-0.01,0.07-0.02,0.11c-0.01,0.03-0.01,0.06-0.02,0.09H1.29
		V9.05z M15.73,10.96c0.08,0.58,0.35,1.11,0.77,1.52H7.32c0.42-0.41,0.69-0.94,0.77-1.52H15.73z M3.57,10.58
		c0-1.05,0.85-1.9,1.9-1.9s1.9,0.85,1.9,1.9c0,1.05-0.85,1.9-1.9,1.9C4.41,12.48,3.57,11.63,3.57,10.58z M8.17,17.43l-2.52-1.16
		h2.68C8.12,16.62,8.06,17.04,8.17,17.43z M8.08,20.39l-4.42-2.21c-0.29-0.15-0.48-0.44-0.48-0.77v-0.08c0-0.29,0.15-0.57,0.39-0.73
		c0.25-0.16,0.56-0.18,0.82-0.06l4.31,1.98c0.05,0.02,0.1,0.03,0.16,0.03h3.79c0.21,0,0.38-0.17,0.38-0.38
		c0-0.21-0.17-0.38-0.38-0.38H9.63c-0.42,0-0.76-0.34-0.76-0.76c0-0.42,0.34-0.76,0.76-0.76h2.91c0.06,0,0.13-0.02,0.18-0.05
		l0.1-0.05c1.48-0.82,3.28-0.84,4.78-0.06v4.71H9.95C9.3,20.83,8.66,20.68,8.08,20.39z M22.52,16.27v4.56h-4.17v-4.56H22.52z
		 M22.5,13.24c-0.19,1.31-1.31,2.28-2.63,2.28h-1.8c-1.75-0.97-3.86-0.97-5.61-0.01l-2.82,0.01H3.94c-1.32,0-2.44-0.97-2.63-2.28
		H22.5z M18.35,12.48c-1.05,0-1.9-0.85-1.9-1.9c0-1.05,0.85-1.9,1.9-1.9c1.05,0,1.9,0.85,1.9,1.9
		C20.25,11.63,19.4,12.48,18.35,12.48z M21.2,10.2h-0.22c0-0.03-0.01-0.06-0.02-0.09c-0.01-0.04-0.01-0.07-0.02-0.11
		c-0.01-0.05-0.02-0.09-0.04-0.14c-0.01-0.03-0.02-0.07-0.03-0.1c-0.02-0.05-0.03-0.1-0.05-0.14c-0.01-0.03-0.02-0.06-0.03-0.09
		c-0.02-0.05-0.05-0.1-0.08-0.16c-0.01-0.02-0.02-0.05-0.03-0.07c-0.04-0.07-0.08-0.14-0.13-0.21c-0.01-0.02-0.02-0.03-0.04-0.05
		C20.48,9,20.45,8.95,20.41,8.9c-0.02-0.02-0.04-0.05-0.06-0.07c-0.03-0.04-0.07-0.08-0.1-0.11c-0.02-0.02-0.05-0.05-0.07-0.07
		c-0.03-0.03-0.07-0.07-0.11-0.1c-0.03-0.02-0.05-0.04-0.08-0.07c-0.04-0.03-0.08-0.06-0.11-0.08c-0.03-0.02-0.06-0.04-0.09-0.06
		c-0.04-0.02-0.08-0.05-0.12-0.07c-0.03-0.02-0.06-0.04-0.09-0.05c-0.04-0.02-0.08-0.04-0.13-0.06c-0.03-0.01-0.07-0.03-0.1-0.04
		c-0.04-0.02-0.09-0.03-0.14-0.05c-0.03-0.01-0.07-0.02-0.1-0.03c-0.05-0.01-0.1-0.03-0.15-0.04c-0.03-0.01-0.06-0.02-0.1-0.02
		c-0.06-0.01-0.11-0.02-0.17-0.03c-0.03,0-0.06-0.01-0.08-0.01c-0.08-0.01-0.17-0.01-0.26-0.01c-0.09,0-0.17,0.01-0.26,0.01
		c-0.03,0-0.06,0.01-0.08,0.01c-0.06,0.01-0.11,0.01-0.17,0.03c-0.03,0.01-0.06,0.01-0.1,0.02c-0.05,0.01-0.1,0.02-0.15,0.04
		c-0.03,0.01-0.07,0.02-0.1,0.03c-0.05,0.02-0.09,0.03-0.14,0.05c-0.03,0.01-0.07,0.03-0.1,0.04c-0.04,0.02-0.09,0.04-0.13,0.06
		c-0.03,0.02-0.06,0.03-0.09,0.05C17,8.29,16.96,8.32,16.92,8.34c-0.03,0.02-0.06,0.04-0.09,0.06c-0.04,0.03-0.08,0.06-0.11,0.08
		c-0.03,0.02-0.06,0.04-0.08,0.07c-0.04,0.03-0.07,0.06-0.11,0.1c-0.02,0.02-0.05,0.05-0.07,0.07c-0.03,0.04-0.07,0.07-0.1,0.11
		c-0.02,0.02-0.04,0.05-0.06,0.07c-0.04,0.05-0.08,0.1-0.11,0.15c-0.01,0.02-0.02,0.03-0.04,0.05c-0.05,0.07-0.09,0.14-0.13,0.21
		C16.01,9.33,16,9.35,15.99,9.37c-0.03,0.05-0.05,0.1-0.08,0.16c-0.01,0.03-0.02,0.06-0.03,0.09c-0.02,0.05-0.04,0.09-0.05,0.14
		c-0.01,0.03-0.02,0.07-0.03,0.1c-0.01,0.05-0.03,0.09-0.04,0.14c-0.01,0.04-0.01,0.07-0.02,0.11c-0.01,0.03-0.01,0.06-0.02,0.09
		H13.8V5.64h4.55c0.07,0,0.14-0.02,0.2-0.06l1.35-0.85l0.02,0.01l0.12,0.08c0.03,0.02,0.06,0.03,0.1,0.04l2.38,0.68V6.4h-1.52v0.76
		h1.52v1.39L21.2,10.2z"/>
	<path fill="#00AACC" d="M10.77,6.4h1.52v0.76h-1.52V6.4z"/>
</g>
<g>
</g>
<g>
</g>
<g>
</g>
<g>
</g>
<g>
</g>
<g>
</g>
<g>
</g>
<g>
</g>
<g>
</g>
<g>
</g>
<g>
</g>
<g>
</g>
<g>
</g>
<g>
</g>
<g>
</g>
</svg>
