<?xml version="1.0" encoding="utf-8"?>
<!-- Generator: Adobe Illustrator 23.0.0, SVG Export Plug-In . SVG Version: 6.00 Build 0)  -->
<svg version="1.1" id="Capa_1" xmlns="http://www.w3.org/2000/svg" xmlns:xlink="http://www.w3.org/1999/xlink" x="0px" y="0px"
	 viewBox="0 0 23.8 14.2" style="enable-background:new 0 0 23.8 14.2;" xml:space="preserve">
<style type="text/css">
	.st0{fill:none;stroke:#00AACC;stroke-width:1.4424;stroke-linejoin:round;stroke-miterlimit:10;}
	.st1{fill:none;stroke:#00AACC;stroke-width:1.4424;stroke-linecap:round;stroke-linejoin:round;stroke-miterlimit:10;}
	.st2{fill:none;stroke:#00AACC;stroke-width:1.4424;stroke-miterlimit:10;}
</style>
<g>
	<g>
		<path class="st0" d="M9.4,11.1 M21.1,10.8c0.3-0.1,0.5-0.2,0.5-0.2c1-0.9,0.7-2.3,0.7-2.3c-0.2-1.8-5.6-3.6-5.6-3.6L14,1.7
			c-3.4-1.1-7.7,0.2-7.7,0.2c-4,0.9-4.5,3.6-4.5,3.6l0,2.2c-1,2.2,0.2,3.1,0.8,3.3"/>
	</g>
	<line class="st1" x1="7.7" y1="11.2" x2="15.9" y2="11.2"/>
	<line class="st1" x1="4.7" y1="5.1" x2="17.6" y2="5.1"/>
	<line class="st1" x1="9.5" y1="5.1" x2="9.5" y2="1.5"/>
	<path class="st2" d="M19.5,11c0,1-0.8,1.8-1.8,1.8c-1,0-1.8-0.8-1.8-1.8c0-1,0.8-1.8,1.8-1.8C18.7,9.2,19.5,10,19.5,11z"/>
	<path class="st2" d="M7.8,11c0,1-0.8,1.8-1.8,1.8c-1,0-1.8-0.8-1.8-1.8c0-1,0.8-1.8,1.8-1.8C6.9,9.2,7.8,10,7.8,11z"/>
</g>
</svg>
