<?xml version="1.0" encoding="utf-8"?>
<!-- Generator: Adobe Illustrator 23.0.0, SVG Export Plug-In . SVG Version: 6.00 Build 0)  -->
<svg version="1.1" id="Capa_1" xmlns="http://www.w3.org/2000/svg" xmlns:xlink="http://www.w3.org/1999/xlink" x="0px" y="0px"
	 viewBox="0 0 23.81 23.81" enable-background="new 0 0 23.81 23.81" xml:space="preserve">
<g id="Page-1_2_">
	<g id="_x30_18---Disabled-male-toilets_1_">
		<path id="Shape_11_" fill="#00AACC" d="M10.8,9.04c0.99,0,1.79-0.8,1.79-1.79s-0.8-1.79-1.79-1.79s-1.79,0.8-1.79,1.79
			S9.82,9.04,10.8,9.04z M10.8,6.17c0.59,0,1.07,0.48,1.07,1.08S11.4,8.32,10.8,8.32S9.73,7.84,9.73,7.24S10.21,6.17,10.8,6.17z"/>
		<path id="Shape_7_" fill="#00AACC" d="M14.88,13.77c-0.2-0.27-0.52-0.43-0.86-0.43h-2.15v-0.72h1.07c0.59,0,1.07-0.48,1.07-1.08
			c0-0.04,0-0.09-0.01-0.13c-0.07-0.54-0.52-0.94-1.06-0.94h-1.07c0-0.55-0.42-1.01-0.96-1.07c-0.55-0.06-1.05,0.31-1.16,0.85
			c-1.68,0.96-2.66,2.8-2.52,4.74s1.39,3.61,3.19,4.31c1.81,0.7,3.85,0.29,5.25-1.05c0.36,0.19,0.81,0.16,1.14-0.09
			c0.47-0.36,0.57-1.03,0.21-1.51L14.88,13.77z M10.8,15.49h2.68l0.81,1.09c-0.54,0.57-1.28,0.9-2.07,0.89
			c-1.01,0-1.95-0.53-2.47-1.41c-0.52-0.87-0.53-1.96-0.04-2.84v1.19C9.73,15.01,10.21,15.49,10.8,15.49z M7.94,14.61
			c0-1.39,0.66-2.69,1.79-3.5v0.94c-1.41,1.39-1.43,3.66-0.04,5.07c1.38,1.41,3.65,1.43,5.05,0.04l0.43,0.57
			c-1.24,1.18-3.07,1.5-4.64,0.82S7.94,16.33,7.94,14.61z M16.38,17.58c-0.16,0.11-0.38,0.08-0.5-0.07l-1.93-2.58
			c-0.07-0.09-0.17-0.14-0.29-0.14H10.8c-0.2,0-0.36-0.16-0.36-0.36v-3.95c0-0.2,0.16-0.36,0.36-0.36c0.2,0,0.36,0.16,0.36,0.36
			v0.36c0,0.2,0.16,0.36,0.36,0.36h1.43c0.18,0,0.33,0.13,0.35,0.31c0,0.02,0,0.03,0,0.05c0,0.2-0.16,0.36-0.36,0.36h-1.43
			c-0.2,0-0.36,0.16-0.36,0.36v1.44c0,0.2,0.16,0.36,0.36,0.36h2.5c0.11,0,0.22,0.05,0.29,0.14l2.15,2.87
			C16.58,17.23,16.54,17.46,16.38,17.58z"/>
		<path id="Shape_6_" fill="#00AACC" d="M20.85,1.14H2.96c-0.99,0-1.79,0.8-1.79,1.79v17.94c0,0.99,0.8,1.79,1.79,1.79h17.89
			c0.99,0,1.79-0.8,1.79-1.79V2.94C22.64,1.95,21.84,1.15,20.85,1.14z M21.92,20.88c0,0.59-0.48,1.08-1.07,1.08H2.96
			c-0.59,0-1.07-0.48-1.07-1.08V2.94c0-0.59,0.48-1.08,1.07-1.08h17.89c0.59,0,1.07,0.48,1.07,1.08V20.88z"/>
	</g>
</g>
<g>
</g>
<g>
</g>
<g>
</g>
<g>
</g>
<g>
</g>
<g>
</g>
<g>
</g>
<g>
</g>
<g>
</g>
<g>
</g>
<g>
</g>
<g>
</g>
<g>
</g>
<g>
</g>
<g>
</g>
</svg>
