<?xml version="1.0" encoding="utf-8"?>
<!-- Generator: Adobe Illustrator 23.0.0, SVG Export Plug-In . SVG Version: 6.00 Build 0)  -->
<svg version="1.1" id="Capa_1" xmlns="http://www.w3.org/2000/svg" xmlns:xlink="http://www.w3.org/1999/xlink" x="0px" y="0px"
	 viewBox="0 0 23.8 23.8" style="enable-background:new 0 0 23.8 23.8;" xml:space="preserve">
<style type="text/css">
	.st0{fill:#00AACC;}
</style>
<g id="Page-1_1_">
	<g id="_x30_18---Disabled-male-toilets_2_">
		<path id="Shape_2_" class="st0" d="M9.7,6.4c1.6,0,2.8-1.3,2.8-2.8s-1.3-2.8-2.8-2.8S6.8,2,6.8,3.6S8.1,6.4,9.7,6.4z M9.7,1.9
			c0.9,0,1.7,0.8,1.7,1.7s-0.8,1.7-1.7,1.7C8.7,5.3,8,4.5,8,3.6S8.7,1.9,9.7,1.9z"/>
		<path id="Shape_1_" class="st0" d="M16.1,13.8c-0.3-0.4-0.8-0.7-1.4-0.7h-3.4V12H13c0.9,0,1.7-0.8,1.7-1.7c0-0.1,0-0.1,0-0.2
			c-0.1-0.8-0.8-1.5-1.7-1.5h-1.7c0-0.9-0.7-1.6-1.5-1.7C9,6.9,8.2,7.4,8,8.3c-2.7,1.5-4.2,4.4-4,7.5c0.2,3,2.2,5.7,5,6.8
			s6.1,0.5,8.3-1.7c0.6,0.3,1.3,0.2,1.8-0.1c0.7-0.6,0.9-1.6,0.3-2.4L16.1,13.8z M9.7,16.6h4.2l1.3,1.7c-0.8,0.9-2,1.4-3.3,1.4
			c-1.6,0-3.1-0.8-3.9-2.2C7.2,16.1,7.2,14.4,8,13v1.9C8,15.8,8.7,16.6,9.7,16.6z M5.1,15.2c0-2.2,1-4.2,2.8-5.5v1.5
			c-2.2,2.2-2.2,5.8-0.1,8s5.7,2.3,8,0.1l0.7,0.9c-2,1.9-4.8,2.4-7.3,1.3C6.7,20.3,5.1,17.9,5.1,15.2z M18.4,19.8
			c-0.3,0.2-0.6,0.1-0.8-0.1l-3-4.1c-0.1-0.1-0.3-0.2-0.5-0.2H9.7c-0.3,0-0.6-0.3-0.6-0.6V8.6c0-0.3,0.3-0.6,0.6-0.6
			c0.3,0,0.6,0.3,0.6,0.6v0.6c0,0.3,0.3,0.6,0.6,0.6H13c0.3,0,0.5,0.2,0.6,0.5c0,0,0,0,0,0.1c0,0.3-0.3,0.6-0.6,0.6h-2.3
			c-0.3,0-0.6,0.3-0.6,0.6v2.3c0,0.3,0.3,0.6,0.6,0.6h3.9c0.2,0,0.3,0.1,0.5,0.2l3.4,4.5C18.7,19.3,18.7,19.7,18.4,19.8z"/>
	</g>
</g>
</svg>
