<svg id="Layer_1" data-name="Layer 1" xmlns="http://www.w3.org/2000/svg" viewBox="0 0 177 223"><defs><style>.cls-1,.cls-2{fill:#00a8ac;}.cls-2{font-size:18.89px;font-family:DINAlternate-Bold, DIN Alternate;font-weight:700;letter-spacing:0.1em;}.cls-3{letter-spacing:0.08em;}.cls-4{letter-spacing:0.43em;}.cls-5{letter-spacing:0.36em;}.cls-6{letter-spacing:0.42em;}.cls-7{letter-spacing:0.44em;}.cls-8{fill:#fff;}</style></defs><title>logo</title><path class="cls-1" d="M14.47,12.13V160.72H163.05V12.13Z"/><text class="cls-2" transform="translate(17.24 182.28)">NUE<tspan class="cls-3" x="40.7" y="0">V</tspan><tspan x="52.66" y="0">O MUNDO</tspan><tspan class="cls-4"><tspan x="2.23" y="22.54">ES</tspan><tspan class="cls-5" x="40.01" y="22.54">P</tspan><tspan class="cls-6" x="58.02" y="22.54">A</tspan><tspan class="cls-7" x="77.41" y="22.54">CIOS</tspan></tspan></text><polygon class="cls-8" points="47.7 51.25 47.7 94.79 40.71 94.79 40.71 44.25 72.82 44.25 72.82 128.59 65.83 128.59 65.83 51.25 47.7 51.25"/><polygon class="cls-8" points="136.81 128.59 129.82 128.59 129.82 51.25 111.69 51.25 111.69 128.59 104.69 128.59 104.69 51.25 86.57 51.25 86.57 94.79 79.57 94.79 79.57 44.25 108.19 44.25 111.69 44.25 136.81 44.25 136.81 128.59"/></svg>