<?xml version="1.0" encoding="utf-8"?>
<!-- Generator: Adobe Illustrator 23.0.0, SVG Export Plug-In . SVG Version: 6.00 Build 0)  -->
<svg version="1.1" id="Capa_1" xmlns="http://www.w3.org/2000/svg" xmlns:xlink="http://www.w3.org/1999/xlink" x="0px" y="0px"
	 viewBox="0 0 148.14 144.74" enable-background="new 0 0 148.14 144.74" xml:space="preserve">
<g>
	<rect x="18.87" y="17.81" fill="#FFFFFF" width="108.08" height="113.18"/>
	<g>
		<path fill="#00A8AC" d="M68.09,113.56h-0.06c-0.11,0.78-0.32,2.2-0.55,3.18l-0.91,3.98h3.01l-0.93-3.98
			C68.43,115.76,68.19,114.34,68.09,113.56z"/>
		<path fill="#00A8AC" d="M57.96,112.9H56.2v5.55h1.76c1.61,0,2.39-0.89,2.39-2.8C60.35,113.84,59.57,112.9,57.96,112.9z"/>
		<path fill="#00A8AC" d="M96.14,112.69c-1.55,0-2.33,1.02-2.33,2.88V121c0,1.86,0.79,2.88,2.33,2.88c1.53,0,2.33-1.02,2.33-2.88
			v-5.42C98.47,113.71,97.66,112.69,96.14,112.69z"/>
		<path fill="#00A8AC" d="M0,0v144.74h148.14V0H0z M40.63,125.7h-7.48v-14.83h7.27v2.01h-5.13v4.3h4.73v1.97h-4.73v4.53h5.34V125.7z
			 M47.07,125.98c-2.63,0-4.32-1.63-4.35-4.34h2.18c0.02,1.53,0.85,2.27,2.16,2.27c1.42,0,2.12-0.85,2.12-2.03
			c0-2.95-6.21-3.12-6.21-7.52c0-2.14,1.57-3.75,4.07-3.75c2.54,0,4.07,1.63,4.13,4.15H49c-0.04-1.42-0.78-2.1-1.93-2.1
			c-1.21,0-1.91,0.68-1.91,1.74c0,2.9,6.23,2.9,6.23,7.5C51.39,124.09,49.84,125.98,47.07,125.98z M35.8,30.81v38.78h-6.23V24.58
			h28.6v75.11h-6.23V30.81H35.8z M57.98,120.49H56.2v5.21h-2.14v-14.83h3.92c2.9,0,4.56,1.76,4.56,4.79
			C62.54,118.77,60.88,120.49,57.98,120.49z M70.71,125.7l-0.7-2.99H66.1l-0.68,2.99h-2.25l3.73-14.83h2.31l3.73,14.83H70.71z
			 M78.91,125.95c-2.61,0-4.3-1.63-4.3-4.62v-6.1c0-3.01,1.67-4.64,4.28-4.64c2.69,0,4.28,1.61,4.41,4.56h-2.12
			c-0.13-1.74-0.89-2.52-2.31-2.52c-1.25,0-2.08,0.83-2.08,2.61v6.1c0,1.76,0.83,2.58,2.12,2.58c1.44,0,2.2-0.8,2.35-2.5h2.12
			C83.23,124.34,81.64,125.95,78.91,125.95z M88.34,125.7H86.2v-14.83h2.14V125.7z M100.67,121c0,3.09-1.7,4.98-4.53,4.98
			c-2.84,0-4.53-1.89-4.53-4.98v-5.42c0-3.09,1.69-4.98,4.53-4.98c2.84,0,4.53,1.89,4.53,4.98V121z M107.36,125.98
			c-2.63,0-4.32-1.63-4.35-4.34h2.18c0.02,1.53,0.85,2.27,2.16,2.27c1.42,0,2.12-0.85,2.12-2.03c0-2.95-6.21-3.12-6.21-7.52
			c0-2.14,1.57-3.75,4.07-3.75c2.54,0,4.07,1.63,4.13,4.15h-2.18c-0.04-1.42-0.78-2.1-1.93-2.1c-1.21,0-1.91,0.68-1.91,1.74
			c0,2.9,6.23,2.9,6.23,7.5C111.69,124.09,110.14,125.98,107.36,125.98z M115.16,99.69h-6.23V30.81H92.79v68.88h-6.23V30.81H70.42
			v38.78h-6.23V24.58h25.49h3.12h22.37V99.69z"/>
	</g>
</g>
<g>
</g>
<g>
</g>
<g>
</g>
<g>
</g>
<g>
</g>
<g>
</g>
<g>
</g>
<g>
</g>
<g>
</g>
<g>
</g>
<g>
</g>
<g>
</g>
<g>
</g>
<g>
</g>
<g>
</g>
</svg>
