<?xml version="1.0" encoding="utf-8"?>
<!-- Generator: Adobe Illustrator 23.0.0, SVG Export Plug-In . SVG Version: 6.00 Build 0)  -->
<svg version="1.1" id="Capa_1" xmlns="http://www.w3.org/2000/svg" xmlns:xlink="http://www.w3.org/1999/xlink" x="0px" y="0px"
	 viewBox="0 0 148.1 144.7" style="enable-background:new 0 0 148.1 144.7;" xml:space="preserve">
<style type="text/css">
	.st0{fill:#00AACC;}
	.st1{fill:#FFFFFF;}
</style>
<path class="st0" d="M0-1.2v147.1h148.1V-1.2H0z"/>
<g>
	<path class="st1" d="M11.3,59.4H13l5.6,9h0v-9h1.9v12.7h-1.8l-5.6-9h0v9h-1.9V59.4z"/>
	<path class="st1" d="M24.3,59.4h1.9v8.2c0,0.9,0.3,1.5,0.7,2c0.5,0.5,1.1,0.7,1.8,0.7s1.3-0.2,1.8-0.7c0.5-0.5,0.7-1.1,0.7-2v-8.2
		h1.9v8.4c0,1.3-0.4,2.4-1.3,3.2c-0.8,0.8-1.9,1.2-3.1,1.2c-1.2,0-2.3-0.4-3.1-1.2c-0.8-0.8-1.3-1.8-1.3-3.2V59.4z"/>
	<path class="st1" d="M36.8,59.4h7.9v1.8h-6v3.6h5.1v1.7h-5.1v3.7h6v1.8h-7.9V59.4z"/>
	<path class="st1" d="M46.4,59.4h2l2.8,9.6h0l2.8-9.6h2L52,72.1h-1.5L46.4,59.4z"/>
	<path class="st1" d="M57.9,65.7c0-1.5,0-2.5,0.1-3c0.1-0.5,0.2-0.9,0.4-1.2c0.3-0.6,0.8-1.1,1.4-1.6c0.6-0.5,1.5-0.7,2.4-0.7
		c1,0,1.8,0.2,2.5,0.7c0.6,0.5,1.1,1,1.4,1.6c0.2,0.3,0.4,0.7,0.4,1.2c0.1,0.5,0.1,1.5,0.1,3c0,1.4,0,2.4-0.1,2.9
		c-0.1,0.5-0.2,0.9-0.4,1.2c-0.3,0.6-0.8,1.1-1.4,1.5c-0.7,0.5-1.5,0.7-2.5,0.7c-1,0-1.8-0.3-2.4-0.7c-0.7-0.4-1.1-1-1.4-1.5
		c-0.1-0.2-0.2-0.4-0.2-0.5c-0.1-0.2-0.1-0.4-0.2-0.7C58,68.2,57.9,67.2,57.9,65.7z M59.8,65.7c0,1.2,0,2.1,0.1,2.5
		c0.1,0.4,0.2,0.8,0.5,1.1c0.2,0.3,0.5,0.5,0.8,0.6c0.3,0.2,0.7,0.3,1.1,0.3c0.4,0,0.8-0.1,1.2-0.3c0.3-0.2,0.6-0.4,0.7-0.6
		c0.2-0.3,0.4-0.6,0.5-1.1c0.1-0.4,0.1-1.3,0.1-2.5s0-2.1-0.1-2.6c-0.1-0.4-0.3-0.8-0.5-1.1c-0.2-0.3-0.4-0.5-0.7-0.7
		c-0.3-0.2-0.7-0.3-1.2-0.3c-0.4,0-0.8,0.1-1.1,0.3c-0.3,0.2-0.6,0.4-0.8,0.7c-0.2,0.3-0.4,0.6-0.5,1.1
		C59.8,63.6,59.8,64.5,59.8,65.7z"/>
	<path class="st1" d="M75.5,59.4h1.8l3.5,8.3l3.5-8.3h1.8v12.7h-1.9v-7.9h0l-2.6,6.1H80l-2.6-6.1h0v7.9h-1.9V59.4z"/>
	<path class="st1" d="M89.9,59.4h1.9v8.2c0,0.9,0.3,1.5,0.7,2c0.5,0.5,1.1,0.7,1.8,0.7s1.3-0.2,1.8-0.7c0.5-0.5,0.7-1.1,0.7-2v-8.2
		h1.9v8.4c0,1.3-0.4,2.4-1.3,3.2c-0.8,0.8-1.9,1.2-3.1,1.2c-1.2,0-2.3-0.4-3.1-1.2c-0.8-0.8-1.3-1.8-1.3-3.2V59.4z"/>
	<path class="st1" d="M102.4,59.4h1.8l5.6,9h0v-9h1.9v12.7h-1.8l-5.6-9h0v9h-1.9V59.4z"/>
	<path class="st1" d="M115.6,59.4h4.3c1.7,0,2.9,0.7,3.8,2.1c0.3,0.5,0.5,1,0.6,1.5c0.1,0.5,0.1,1.4,0.1,2.7c0,1.4,0,2.3-0.1,2.8
		c0,0.3-0.1,0.5-0.2,0.7c-0.1,0.2-0.2,0.4-0.3,0.7c-0.4,0.6-0.9,1.1-1.5,1.5c-0.6,0.4-1.4,0.6-2.3,0.6h-4.2V59.4z M117.5,70.3h2.2
		c1.1,0,1.8-0.4,2.3-1.1c0.2-0.3,0.3-0.6,0.4-1c0.1-0.4,0.1-1.2,0.1-2.3c0-1.1,0-1.9-0.1-2.4c-0.1-0.5-0.2-0.9-0.5-1.2
		c-0.5-0.7-1.3-1.1-2.2-1.1h-2.2V70.3z"/>
	<path class="st1" d="M127.4,65.7c0-1.5,0-2.5,0.1-3c0.1-0.5,0.2-0.9,0.4-1.2c0.3-0.6,0.8-1.1,1.4-1.6c0.6-0.5,1.5-0.7,2.4-0.7
		c1,0,1.8,0.2,2.5,0.7c0.6,0.5,1.1,1,1.4,1.6c0.2,0.3,0.4,0.7,0.4,1.2c0.1,0.5,0.1,1.5,0.1,3c0,1.4,0,2.4-0.1,2.9
		c-0.1,0.5-0.2,0.9-0.4,1.2c-0.3,0.6-0.8,1.1-1.4,1.5c-0.7,0.5-1.5,0.7-2.5,0.7c-1,0-1.8-0.3-2.4-0.7c-0.7-0.4-1.1-1-1.4-1.5
		c-0.1-0.2-0.2-0.4-0.2-0.5c-0.1-0.2-0.1-0.4-0.2-0.7C127.5,68.2,127.4,67.2,127.4,65.7z M129.3,65.7c0,1.2,0,2.1,0.1,2.5
		c0.1,0.4,0.2,0.8,0.5,1.1c0.2,0.3,0.5,0.5,0.8,0.6c0.3,0.2,0.7,0.3,1.1,0.3c0.4,0,0.8-0.1,1.2-0.3c0.3-0.2,0.6-0.4,0.7-0.6
		c0.2-0.3,0.4-0.6,0.5-1.1c0.1-0.4,0.1-1.3,0.1-2.5s0-2.1-0.1-2.6c-0.1-0.4-0.3-0.8-0.5-1.1c-0.2-0.3-0.4-0.5-0.7-0.7
		c-0.3-0.2-0.7-0.3-1.2-0.3c-0.4,0-0.8,0.1-1.1,0.3c-0.3,0.2-0.6,0.4-0.8,0.7c-0.2,0.3-0.4,0.6-0.5,1.1
		C129.4,63.6,129.3,64.5,129.3,65.7z"/>
	<path class="st1" d="M12.3,80.6h7.9v1.8h-6v3.6h5.1v1.7h-5.1v3.7h6v1.8h-7.9V80.6z"/>
	<path class="st1" d="M29.5,90.2c1,0.8,2.2,1.3,3.5,1.3c1.6,0,2.4-0.6,2.4-1.8c0-0.9-0.5-1.5-1.6-1.7c-0.5-0.1-1-0.1-1.6-0.2
		c-1.1-0.2-1.9-0.6-2.4-1.2c-0.6-0.6-0.9-1.4-0.9-2.3c0-1.1,0.4-2,1.1-2.7c0.7-0.7,1.7-1,3-1c1.5,0,2.9,0.5,4,1.3l-1,1.6
		c-0.9-0.6-1.9-1-3.1-1c-0.6,0-1.1,0.1-1.4,0.4c-0.4,0.3-0.6,0.8-0.6,1.4c0,0.4,0.1,0.7,0.4,1c0.3,0.3,0.7,0.5,1.3,0.6
		c0.3,0.1,0.8,0.1,1.4,0.2c1.2,0.2,2,0.6,2.6,1.3c0.5,0.7,0.8,1.5,0.8,2.4c-0.1,2.4-1.5,3.7-4.3,3.7c-1.8,0-3.4-0.6-4.7-1.7
		L29.5,90.2z"/>
	<path class="st1" d="M46.7,80.6h4.5c0.5,0,1,0,1.4,0.1c0.5,0.1,0.9,0.4,1.4,0.7c0.4,0.3,0.7,0.7,0.9,1.2c0.3,0.5,0.4,1.1,0.4,1.8
		c0,0.9-0.3,1.8-1,2.6c-0.7,0.8-1.6,1.2-2.9,1.3h-2.8v4.9h-1.9V80.6z M48.6,86.6h2.8c0.7,0,1.2-0.2,1.6-0.7c0.3-0.4,0.5-0.9,0.5-1.4
		c0-0.4-0.1-0.8-0.2-1.1c-0.1-0.3-0.3-0.5-0.6-0.6c-0.4-0.3-0.8-0.4-1.3-0.4h-2.7V86.6z"/>
	<path class="st1" d="M69.4,90.5h-4.7l-0.9,2.8h-2l4.5-12.7h1.6l4.5,12.7h-2L69.4,90.5z M68.9,88.8l-1.8-5.5h0l-1.8,5.5H68.9z"/>
	<path class="st1" d="M89.1,89.8c-0.3,1.2-0.8,2.1-1.6,2.7c-0.8,0.6-1.7,0.9-2.8,0.9c-1,0-1.8-0.3-2.4-0.7c-0.7-0.4-1.1-1-1.4-1.5
		c-0.1-0.2-0.2-0.4-0.2-0.5c-0.1-0.2-0.1-0.4-0.2-0.7c-0.1-0.5-0.1-1.5-0.1-2.9c0-1.5,0-2.5,0.1-3c0.1-0.5,0.2-0.9,0.4-1.2
		c0.3-0.6,0.8-1.1,1.4-1.6c0.6-0.5,1.5-0.7,2.4-0.7c1.2,0,2.2,0.4,2.9,1.1c0.8,0.7,1.2,1.6,1.4,2.7h-2c-0.2-0.5-0.4-0.9-0.8-1.3
		c-0.4-0.3-0.9-0.5-1.5-0.5c-0.4,0-0.8,0.1-1.1,0.3c-0.3,0.2-0.6,0.4-0.8,0.7c-0.2,0.3-0.4,0.6-0.5,1.1c-0.1,0.5-0.1,1.3-0.1,2.6
		s0,2.1,0.1,2.5c0.1,0.4,0.2,0.8,0.5,1.1c0.2,0.3,0.5,0.5,0.8,0.6c0.3,0.2,0.7,0.3,1.1,0.3c1.1,0,1.8-0.6,2.4-1.7H89.1z"/>
	<path class="st1" d="M97.8,80.6h1.9v12.7h-1.9V80.6z"/>
	<path class="st1" d="M109,87c0-1.5,0-2.5,0.1-3c0.1-0.5,0.2-0.9,0.4-1.2c0.3-0.6,0.8-1.1,1.4-1.6c0.6-0.5,1.5-0.7,2.4-0.7
		c1,0,1.8,0.2,2.5,0.7c0.6,0.5,1.1,1,1.4,1.6c0.2,0.3,0.4,0.7,0.4,1.2c0.1,0.5,0.1,1.5,0.1,3c0,1.4,0,2.4-0.1,2.9
		c-0.1,0.5-0.2,0.9-0.4,1.2c-0.3,0.6-0.8,1.1-1.4,1.5c-0.7,0.5-1.5,0.7-2.5,0.7c-1,0-1.8-0.3-2.4-0.7c-0.7-0.4-1.1-1-1.4-1.5
		c-0.1-0.2-0.2-0.4-0.2-0.5c-0.1-0.2-0.1-0.4-0.2-0.7C109.1,89.4,109,88.4,109,87z M110.9,87c0,1.2,0,2.1,0.1,2.5
		c0.1,0.4,0.2,0.8,0.5,1.1c0.2,0.3,0.5,0.5,0.8,0.6c0.3,0.2,0.7,0.3,1.1,0.3c0.4,0,0.8-0.1,1.2-0.3c0.3-0.2,0.6-0.4,0.7-0.6
		c0.2-0.3,0.4-0.6,0.5-1.1c0.1-0.4,0.1-1.3,0.1-2.5s0-2.1-0.1-2.6c-0.1-0.4-0.3-0.8-0.5-1.1c-0.2-0.3-0.4-0.5-0.7-0.7
		c-0.3-0.2-0.7-0.3-1.2-0.3c-0.4,0-0.8,0.1-1.1,0.3c-0.3,0.2-0.6,0.4-0.8,0.7c-0.2,0.3-0.4,0.6-0.5,1.1
		C111,84.9,110.9,85.7,110.9,87z"/>
	<path class="st1" d="M127.6,90.2c1,0.8,2.2,1.3,3.5,1.3c1.6,0,2.4-0.6,2.4-1.8c0-0.9-0.5-1.5-1.6-1.7c-0.5-0.1-1-0.1-1.6-0.2
		c-1.1-0.2-1.9-0.6-2.4-1.2c-0.6-0.6-0.9-1.4-0.9-2.3c0-1.1,0.4-2,1.1-2.7c0.7-0.7,1.7-1,3-1c1.5,0,2.9,0.5,4,1.3l-1,1.6
		c-0.9-0.6-1.9-1-3.1-1c-0.6,0-1.1,0.1-1.4,0.4c-0.4,0.3-0.6,0.8-0.6,1.4c0,0.4,0.1,0.7,0.4,1c0.3,0.3,0.7,0.5,1.3,0.6
		c0.3,0.1,0.8,0.1,1.4,0.2c1.2,0.2,2,0.6,2.6,1.3c0.5,0.7,0.8,1.5,0.8,2.4c-0.1,2.4-1.5,3.7-4.3,3.7c-1.8,0-3.4-0.6-4.7-1.7
		L127.6,90.2z"/>
</g>
</svg>
