<?xml version="1.0" encoding="utf-8"?>
<!-- Generator: Adobe Illustrator 23.0.0, SVG Export Plug-In . SVG Version: 6.00 Build 0)  -->
<svg version="1.1" id="Capa_1" xmlns="http://www.w3.org/2000/svg" xmlns:xlink="http://www.w3.org/1999/xlink" x="0px" y="0px"
	 viewBox="0 0 49.3 49.3" style="enable-background:new 0 0 49.3 49.3;" xml:space="preserve">
<style type="text/css">
	.st0{fill:#00AACC;}
	.st1{fill:none;stroke:#FFFFFF;stroke-width:1.2063;stroke-linejoin:round;stroke-miterlimit:10;}
</style>
<g>
	<g>
		<circle class="st0" cx="24.6" cy="24.6" r="24"/>
	</g>
	<g>
		<line class="st1" x1="41.5" y1="39" x2="7.7" y2="39"/>
		<path class="st1" d="M31.9,14.9c0,0-0.4,1.2-1.8,1.2c-1.4,0-1.8-1.2-1.8-1.2s-0.8,1.2-1.8,1.2c-1.1,0-1.8-1.2-1.8-1.2
			s-0.5,2.4-2.4,2.4c-1.3,0-1.8-1.2-1.8-1.2s-0.4,1.2-1.8,1.2c-1.2,0-1.8-0.9-1.8-1.8c0-1.8,1.2-1.8,1.2-1.8s-1.8-0.5-1.8-2.4
			s1.3-3,2.4-3s1.8,0.6,1.8,0.6s-0.1-1.8,1.8-1.8c1.4,0,1.8,1.2,1.8,1.2s1.1-1.8,3-1.8s2.4,2.4,2.4,2.4S32,8.1,33,9.2
			c1.6,1.5,0.6,3.9,0.6,3.9s3.7,0,3.7,3c0,1.6-1.2,2.4-1.2,2.4s2.4,0.7,2.4,3c0,2.6-1.1,3.6-2.4,3.6c-1.4,0-1.8-1.2-1.8-1.2
			s-0.6,1.2-2.4,1.2c-1.6,0-2.4-2-1.8-3.6c0,0-0.5,1.2-1.8,1.2c-1.4,0-1.8-1.2-1.8-1.8"/>
		<path class="st1" d="M16.8,15.5c-0.9,0-2.7,0.3-1.8,3.1c0,0-4.3,0.3-4.3,3.6s1.7,3.6,2.5,3.6c0.8,0,1.2-0.6,1.2-0.6s0,1.2,1.8,1.2
			c1.9,0,1.8-1.8,1.8-1.8c0.2,0.8,2.6,1.1,3-0.6"/>
		<path class="st1" d="M12,25.5c0,0-1.3,1.1-1.3,2.7s2.1,2.2,3,1.8"/>
		<path class="st1" d="M12.6,30c-0.3,0.4-0.3,3,1.8,3c1.8,0,2.4-1.2,2.4-1.2s0.6,1.2,3,1.2c1.8,0,2.5-1.5,2.5-2.3"/>
		<polyline class="st1" points="23.4,39 23.4,28.8 22.8,25.2 22.8,22.1 21.6,20.3 21.6,17.2 		"/>
		<polyline class="st1" points="26.4,39 26.4,32.4 31.9,25.2 26.4,30 25.8,28.8 27.7,22.7 25.2,27 24,25.2 22.8,22.1 25.8,19.1 
			25.8,16 		"/>
		<polyline class="st1" points="25.8,19.1 28.9,17.9 29.5,16.1 		"/>
		<polyline class="st1" points="29.2,28.7 33.1,28.2 35,24.8 		"/>
		<polyline class="st1" points="20.4,24.9 20.4,28.8 23.4,31.8 		"/>
		<polyline class="st1" points="16.2,26.4 18,28.8 20.4,28.8 		"/>
		<path class="st1" d="M26.4,32.4c0,0,2.4,1.7,3.7-0.6c0,0,0.5,0.6,1.6,0.6c0.3,0,0.7,0,1.2-0.2c1.4-0.7,1.4-2.2,1.4-2.2
			s2.8,0.6,3.8-1.5c1-2.1-0.6-3.8-0.6-3.8"/>
	</g>
</g>
<g>
</g>
<g>
</g>
<g>
</g>
<g>
</g>
<g>
</g>
<g>
</g>
<g>
</g>
<g>
</g>
<g>
</g>
<g>
</g>
<g>
</g>
<g>
</g>
<g>
</g>
<g>
</g>
<g>
</g>
</svg>
