<?xml version="1.0" encoding="utf-8"?>
<!-- Generator: Adobe Illustrator 23.0.0, SVG Export Plug-In . SVG Version: 6.00 Build 0)  -->
<svg version="1.1" id="Capa_1" xmlns="http://www.w3.org/2000/svg" xmlns:xlink="http://www.w3.org/1999/xlink" x="0px" y="0px"
	 viewBox="0 0 23.8 16.3" style="enable-background:new 0 0 23.8 16.3;" xml:space="preserve">
<style type="text/css">
	.st0{fill:none;stroke:#00AACC;stroke-width:1.1299;stroke-miterlimit:10;}
	.st1{fill:none;stroke:#00AACC;stroke-width:1.1299;stroke-linecap:round;stroke-miterlimit:10;}
</style>
<g>
	<line class="st0" x1="17.1" y1="11.4" x2="19.6" y2="11.4"/>
	<path class="st0" d="M9.3,14.5c-0.4,0.1-1.1,0.1-1.6-0.7l-2.1-3.6H4.3"/>
	<line class="st1" x1="11.4" y1="10.8" x2="12.7" y2="13.1"/>
	<line class="st1" x1="9.6" y1="12.3" x2="10.4" y2="13.7"/>
	<path class="st0" d="M14.3,13.6c-0.4,0.2-1.1,0.4-1.6-0.5"/>
	<path class="st0" d="M11.7,14.2c0,0-0.8,0.5-1.3-0.5"/>
	<line class="st0" x1="4.3" y1="2.8" x2="8.5" y2="2.8"/>
	<polyline class="st0" points="1.2,1.6 4.2,1.6 4.2,11.5 1.2,11.5 	"/>
	<polyline class="st0" points="22.6,2.5 19.6,2.5 19.6,12.4 22.6,12.4 	"/>
	<path class="st0" d="M17.3,11.8l-3.4-6.5c-0.3,0-1.8-0.2-1.8-0.2l-2,2C8.4,8.4,7.5,6.5,7.5,6.5l2.6-3.3c0.9-1.1,1.7-1.1,1.7-1.1
		h3.9l3.8,1.7"/>
	<path class="st1" d="M17.5,11.5c-0.2,0.4-1.1,3-2.4,0.8l-1.8-2.8"/>
	<g>
		<circle class="st0" cx="22" cy="9.9" r="0.2"/>
	</g>
	<g>
		<path class="st0" d="M2.1,9c0,0.1-0.1,0.2-0.2,0.2S1.7,9.1,1.7,9s0.1-0.2,0.2-0.2C2,8.8,2.1,8.9,2.1,9z"/>
	</g>
</g>
</svg>
