<?xml version="1.0" encoding="utf-8"?>
<!-- Generator: Adobe Illustrator 23.0.0, SVG Export Plug-In . SVG Version: 6.00 Build 0)  -->
<svg version="1.1" id="Capa_1" xmlns="http://www.w3.org/2000/svg" xmlns:xlink="http://www.w3.org/1999/xlink" x="0px" y="0px"
	 viewBox="0 0 49.3 49.3" style="enable-background:new 0 0 49.3 49.3;" xml:space="preserve">
<style type="text/css">
	.st0{fill:#00AACC;}
	.st1{fill:#FFFFFF;}
</style>
<g>
	<circle class="st0" cx="24.6" cy="24.6" r="24"/>
	<g>
		<path class="st1" d="M31.9,39.1c-1.4,0-2.4-1.1-2.4-2.7V24.6c0-1.1-0.5-1.5-1.1-2c-1-0.8-2.3-1.7-2.3-5.3c0-4.1,2.5-7.2,5.8-7.2
			c3.3,0,5.8,3.1,5.8,7.2c0,3.5-1.3,4.5-2.3,5.3c-0.7,0.5-1.1,0.9-1.1,2v11.9C34.3,38,33.3,39.1,31.9,39.1z M31.9,11.3
			c-3,0-4.6,3.1-4.6,6c0,2.9,0.9,3.6,1.8,4.3c0.7,0.6,1.6,1.2,1.6,3v11.9c0,0.7,0.3,1.5,1.2,1.5c0.9,0,1.2-0.8,1.2-1.5V24.6
			c0-1.7,0.8-2.4,1.6-3c0.9-0.7,1.8-1.4,1.8-4.3C36.5,14.4,34.9,11.3,31.9,11.3z"/>
		<path class="st1" d="M22.6,10.1c-0.3,0-0.6,0.3-0.6,0.6v8.5c0,1.4-0.6,1.7-1.4,2.2c-0.9,0.5-2,1.1-2,3.1v11.9
			c0,0.7-0.3,1.5-1.2,1.5c-0.9,0-1.2-0.8-1.2-1.5V24.6c0-2-1.1-2.6-2-3.1c-0.8-0.5-1.4-0.8-1.4-2.2v-8.5c0-0.3-0.3-0.6-0.6-0.6
			c-0.3,0-0.6,0.3-0.6,0.6v8.5c0,2.1,1.1,2.7,2,3.3c0.8,0.4,1.4,0.8,1.4,2.1v11.9c0,1.6,1,2.7,2.4,2.7s2.4-1.1,2.4-2.7V24.6
			c0-1.3,0.6-1.6,1.4-2.1c0.9-0.5,2-1.1,2-3.3v-8.5C23.2,10.4,22.9,10.1,22.6,10.1z"/>
		<path class="st1" d="M15.6,19.6c-0.3,0-0.6-0.3-0.6-0.6v-8.3c0-0.3,0.3-0.6,0.6-0.6c0.3,0,0.6,0.3,0.6,0.6V19
			C16.2,19.3,15.9,19.6,15.6,19.6z"/>
		<path class="st1" d="M19.2,19.6c-0.3,0-0.6-0.3-0.6-0.6v-8.3c0-0.3,0.3-0.6,0.6-0.6c0.3,0,0.6,0.3,0.6,0.6V19
			C19.8,19.3,19.5,19.6,19.2,19.6z"/>
	</g>
</g>
<g>
</g>
<g>
</g>
<g>
</g>
<g>
</g>
<g>
</g>
<g>
</g>
<g>
</g>
<g>
</g>
<g>
</g>
<g>
</g>
<g>
</g>
<g>
</g>
<g>
</g>
<g>
</g>
<g>
</g>
</svg>
