<?xml version="1.0" encoding="utf-8"?>
<!-- Generator: Adobe Illustrator 23.0.0, SVG Export Plug-In . SVG Version: 6.00 Build 0)  -->
<svg version="1.1" id="Capa_1" xmlns="http://www.w3.org/2000/svg" xmlns:xlink="http://www.w3.org/1999/xlink" x="0px" y="0px"
	 viewBox="0 0 23.8 23.8" style="enable-background:new 0 0 23.8 23.8;" xml:space="preserve">
<style type="text/css">
	.st0{fill-rule:evenodd;clip-rule:evenodd;fill:#00AACC;}
	.st1{fill:#00AACC;}
</style>
<g>
	<path class="st0" d="M17.3,12.5c-0.5,1.8-1.4,3.5-2.7,4.9c-0.9,1-1.9,1.8-3.1,2.5c-1.2-0.7-2.2-1.5-3.1-2.5
		c-1.3-1.5-2.3-3.2-2.8-5.1c-0.2-0.6-0.3-1.1-0.3-1.6C5.2,9.9,5.2,9,5.2,8c0,0,0-1.5,0-1.8c2.1-0.3,4.2-1,6-2l0,0
		c0.1,0,0.2-0.1,0.2-0.1c0.1,0,0.2,0.1,0.2,0.1l0,0c1.3,0.8,2.8,1.3,4.3,1.7l1.6-1.6c0.1-0.1,0.1-0.1,0.2-0.2
		c-1.8-0.3-3.4-0.8-5-1.7c-0.4-0.2-0.8-0.5-1.2-0.8c0,0-0.1,0-0.1,0c0,0-0.1,0-0.1,0c-0.4,0.3-0.8,0.5-1.2,0.8
		c-1.7,1-3.6,1.6-5.5,1.8c-0.4,0-0.8,0.1-1.3,0.1c-0.3,0-0.3,0-0.3,0.3c0,1.1,0,2.3,0,3.4c0,1,0,2.1,0.1,3.1
		c0.1,0.6,0.2,1.2,0.4,1.8c0.6,2.2,1.7,4.2,3.2,5.9c1.3,1.4,2.8,2.5,4.5,3.3c0,0,0.1,0,0.1,0c0,0,0.1,0,0.1,0
		c1.7-0.8,3.2-1.9,4.5-3.3c1.5-1.7,2.6-3.7,3.2-5.9c0.2-0.6,0.3-1.2,0.4-1.8c0-0.4,0.1-0.7,0.1-1.1L17.3,12.5z"/>
	<g>
		<path class="st0" d="M11.8,4.1L11.8,4.1c1.4,0.8,2.8,1.3,4.3,1.7l1.6-1.6c0.1-0.1,0.1-0.1,0.2-0.2c-1.8-0.3-3.4-0.8-5-1.7
			c-0.4-0.2-0.8-0.5-1.2-0.8c0,0-0.1,0-0.1,0V4c0,0,0,0,0,0C11.6,4,11.7,4.1,11.8,4.1z"/>
		<path class="st0" d="M17.3,12.5c-0.5,1.8-1.4,3.5-2.7,4.9c-0.9,1-1.9,1.8-3.1,2.5h0v2.3c0,0,0.1,0,0.1,0c1.7-0.8,3.2-1.9,4.5-3.3
			c1.5-1.7,2.6-3.7,3.2-5.9c0.2-0.6,0.3-1.2,0.4-1.8c0-0.4,0.1-0.7,0.1-1.1L17.3,12.5z"/>
	</g>
	<path class="st1" d="M11.9,12.1c-0.1,0.1-0.3,0.2-0.4,0.2c-0.2,0-0.3-0.1-0.4-0.2L8.6,9.6C8.4,9.5,8.3,9.4,8.1,9.4
		c-0.2,0-0.3,0.1-0.4,0.2l-0.9,0.9c-0.1,0.1-0.2,0.3-0.2,0.4c0,0.2,0.1,0.3,0.2,0.4l3,3l1.4,1.4c0.1,0.1,0.3,0.2,0.4,0.2
		s0.3-0.1,0.4-0.2l1.4-1.4l7.2-7.2c0.1-0.1,0.2-0.3,0.2-0.4c0-0.2-0.1-0.3-0.2-0.4l-0.9-0.9c-0.1-0.1-0.3-0.2-0.4-0.2
		c-0.2,0-0.3,0.1-0.4,0.2L11.9,12.1z"/>
	<path class="st1" d="M11.5,12.3c-0.2,0-0.3-0.1-0.4-0.2L8.6,9.6C8.4,9.5,8.3,9.4,8.1,9.4c-0.2,0-0.3,0.1-0.4,0.2l-0.9,0.9
		c-0.1,0.1-0.2,0.3-0.2,0.4c0,0.2,0.1,0.3,0.2,0.4l3,3l1.4,1.4c0.1,0.1,0.3,0.2,0.4,0.2V12.3z"/>
</g>
</svg>
