<?xml version="1.0" encoding="utf-8"?>
<!-- Generator: Adobe Illustrator 23.0.0, SVG Export Plug-In . SVG Version: 6.00 Build 0)  -->
<svg version="1.1" id="Capa_1" xmlns="http://www.w3.org/2000/svg" xmlns:xlink="http://www.w3.org/1999/xlink" x="0px" y="0px"
	 viewBox="0 0 49.3 49.3" style="enable-background:new 0 0 49.3 49.3;" xml:space="preserve">
<style type="text/css">
	.st0{fill:#00AACC;}
	.st1{fill:none;stroke:#FFFFFF;stroke-width:1.166;stroke-linecap:square;stroke-miterlimit:10;}
	.st2{fill:#FFFFFF;}
</style>
<g>
	<g>
		<circle class="st0" cx="24.6" cy="24.6" r="24"/>
	</g>
	<g id="_x31_2_1_">
		<polyline class="st1" points="30.4,11.2 32.6,11.2 36.1,37.8 10.3,37.8 13.8,11.2 18.6,11.2 		"/>
		<line class="st1" x1="21.2" y1="11.2" x2="27.8" y2="11.2"/>
		<path class="st1" d="M18.6,12.8v-4c0-1.3,1.1-2.4,2.4-2.4h4.5c1.3,0,2.4,1.1,2.4,2.4v4"/>
		<polyline class="st1" points="16.2,28.9 15.8,33.4 30.7,33.4 30.2,28.9 		"/>
		<line class="st1" x1="35.4" y1="11.4" x2="38.9" y2="37.5"/>
		<path class="st2" d="M19.8,14.5c0,0.7-0.5,1.2-1.2,1.2s-1.2-0.5-1.2-1.2c0-0.7,0.5-1.2,1.2-1.2S19.8,13.9,19.8,14.5z"/>
		<path class="st2" d="M29,14.5c0,0.7-0.5,1.2-1.2,1.2s-1.2-0.5-1.2-1.2c0-0.7,0.5-1.2,1.2-1.2S29,13.9,29,14.5z"/>
	</g>
</g>
<g>
</g>
<g>
</g>
<g>
</g>
<g>
</g>
<g>
</g>
<g>
</g>
<g>
</g>
<g>
</g>
<g>
</g>
<g>
</g>
<g>
</g>
<g>
</g>
<g>
</g>
<g>
</g>
<g>
</g>
</svg>
